<svg width="24" height="24" viewBox="0 0 24 24" fill="none" xmlns="http://www.w3.org/2000/svg">
<circle cx="12" cy="12" r="11.5" stroke="#ABB3BA"/>
<path d="M7.36816 8.86621V16H6.19141V10.2627L4.44824 10.8535V9.88184L7.22656 8.86621H7.36816ZM14.4873 14.0615C14.4873 14.5042 14.3848 14.877 14.1797 15.1797C13.9746 15.4824 13.6947 15.7119 13.3398 15.8682C12.9883 16.0212 12.5911 16.0977 12.1484 16.0977C11.7057 16.0977 11.307 16.0212 10.9521 15.8682C10.5973 15.7119 10.3174 15.4824 10.1123 15.1797C9.90723 14.877 9.80469 14.5042 9.80469 14.0615C9.80469 13.7686 9.86165 13.5033 9.97559 13.2656C10.0895 13.0247 10.2507 12.818 10.459 12.6455C10.6706 12.4697 10.918 12.3346 11.2012 12.2402C11.4876 12.1458 11.8001 12.0986 12.1387 12.0986C12.5879 12.0986 12.9899 12.1816 13.3447 12.3477C13.6995 12.5137 13.9779 12.7432 14.1797 13.0361C14.3848 13.3291 14.4873 13.6709 14.4873 14.0615ZM13.3057 14.0029C13.3057 13.7653 13.2568 13.557 13.1592 13.3779C13.0615 13.1989 12.9248 13.0605 12.749 12.9629C12.5732 12.8652 12.3698 12.8164 12.1387 12.8164C11.9043 12.8164 11.7008 12.8652 11.5283 12.9629C11.3558 13.0605 11.2207 13.1989 11.123 13.3779C11.0286 13.557 10.9814 13.7653 10.9814 14.0029C10.9814 14.2438 11.0286 14.4521 11.123 14.6279C11.2174 14.8005 11.3525 14.9323 11.5283 15.0234C11.7041 15.1146 11.9108 15.1602 12.1484 15.1602C12.3861 15.1602 12.5911 15.1146 12.7637 15.0234C12.9362 14.9323 13.0697 14.8005 13.1641 14.6279C13.2585 14.4521 13.3057 14.2438 13.3057 14.0029ZM14.3262 10.7607C14.3262 11.1156 14.2318 11.4313 14.043 11.708C13.8574 11.9847 13.6003 12.2028 13.2715 12.3623C12.9427 12.5186 12.5684 12.5967 12.1484 12.5967C11.7253 12.5967 11.3477 12.5186 11.0156 12.3623C10.6868 12.2028 10.4281 11.9847 10.2393 11.708C10.0537 11.4313 9.96094 11.1156 9.96094 10.7607C9.96094 10.3376 10.0537 9.98112 10.2393 9.69141C10.4281 9.39844 10.6868 9.17546 11.0156 9.02246C11.3444 8.86947 11.7204 8.79297 12.1436 8.79297C12.5667 8.79297 12.9427 8.86947 13.2715 9.02246C13.6003 9.17546 13.8574 9.39844 14.043 9.69141C14.2318 9.98112 14.3262 10.3376 14.3262 10.7607ZM13.1494 10.7998C13.1494 10.5882 13.1071 10.4027 13.0225 10.2432C12.9411 10.0804 12.8255 9.95345 12.6758 9.8623C12.526 9.77116 12.3486 9.72559 12.1436 9.72559C11.9385 9.72559 11.7611 9.76953 11.6113 9.85742C11.4616 9.94531 11.346 10.069 11.2646 10.2285C11.1833 10.388 11.1426 10.5785 11.1426 10.7998C11.1426 11.0179 11.1833 11.2083 11.2646 11.3711C11.346 11.5306 11.4616 11.6559 11.6113 11.7471C11.7643 11.8382 11.9434 11.8838 12.1484 11.8838C12.3535 11.8838 12.5309 11.8382 12.6807 11.7471C12.8304 11.6559 12.946 11.5306 13.0273 11.3711C13.1087 11.2083 13.1494 11.0179 13.1494 10.7998ZM20.1807 12.1035V13.1631H15.3076V12.1035H20.1807ZM18.3154 10.1113V15.2871H17.1777V10.1113H18.3154Z" fill="#ABB3BA"/>
</svg>