
<svg width="40" height="40" viewBox="0 0 40 40" fill="none" xmlns="http://www.w3.org/2000/svg">
<circle cx="20" cy="20" r="20" fill="url(#paint0_linear_2558_27523)"/>
<g clip-path="url(#clip0_2558_27523)">
<mask id="mask0_2558_27523" style="mask-type:luminance" maskUnits="userSpaceOnUse" x="3" y="3" width="34" height="33">
<path d="M36.6762 3.07812H3.07617V35.3858H36.6762V3.07812Z" fill="white"/>
</mask>
<g mask="url(#mask0_2558_27523)">
<path fill-rule="evenodd" clip-rule="evenodd" d="M14.1805 35.0791C15.1781 34.9176 15.4203 34.0216 15.4203 34.0216C15.4203 34.0216 15.4585 34 15.1366 33.8633C13.9521 33.3614 12.6699 34.6074 12.6699 34.6074C12.6699 34.6074 13.6016 35.1696 14.1805 35.078V35.0791Z" fill="#0B0D0E"/>
<path fill-rule="evenodd" clip-rule="evenodd" d="M15.5948 31.5879C15.2623 31.0678 14.4485 30.8018 14.4485 30.8018C14.4485 30.8018 14.2924 32.6067 15.4429 33.1893C15.7552 33.3476 15.7446 33.3056 15.7446 33.3056C15.7446 33.3056 16.1705 32.4904 15.5958 31.589L15.5948 31.5879Z" fill="#0B0D0E"/>
<path fill-rule="evenodd" clip-rule="evenodd" d="M12.8098 32.997C11.7295 32.2948 10.2539 33.2953 10.2539 33.2953C10.2539 33.2953 11.0783 34.0147 11.6636 34.0222C12.6717 34.0394 13.0669 33.2005 13.0669 33.2005C13.0669 33.2005 13.1052 33.1897 12.8109 32.997H12.8098Z" fill="#0B0D0E"/>
<path fill-rule="evenodd" clip-rule="evenodd" d="M13.226 32.389C13.5064 32.6 13.5032 32.5537 13.5032 32.5537C13.5032 32.5537 14.0641 31.8236 13.652 30.836C13.4129 30.2642 12.6576 29.8604 12.6576 29.8604C12.6576 29.8604 12.1966 31.6125 13.226 32.389Z" fill="#0B0D0E"/>
<path fill-rule="evenodd" clip-rule="evenodd" d="M10.6701 31.7357C9.7278 30.8547 8.10352 31.5817 8.10352 31.5817C8.10352 31.5817 8.79296 32.4346 9.36449 32.5477C10.3556 32.7404 10.8847 31.9855 10.8847 31.9855C10.8847 31.9855 10.9261 31.9747 10.6701 31.7357Z" fill="#0B0D0E"/>
<path fill-rule="evenodd" clip-rule="evenodd" d="M11.4272 31.4239C11.4272 31.4239 12.106 30.8058 11.867 29.759C11.7289 29.1548 11.0565 28.625 11.0565 28.625C11.0565 28.625 10.3012 30.2652 11.185 31.2128C11.424 31.4692 11.4272 31.4239 11.4272 31.4239Z" fill="#0B0D0E"/>
<path fill-rule="evenodd" clip-rule="evenodd" d="M6.27344 29.5128C6.27344 29.5128 6.80672 30.4745 7.35063 30.6856C8.2929 31.0506 8.9441 30.4013 8.9441 30.4013C8.9441 30.4013 8.98553 30.4013 8.77413 30.1202C7.99864 29.0809 6.27344 29.5128 6.27344 29.5128Z" fill="#0B0D0E"/>
<path fill-rule="evenodd" clip-rule="evenodd" d="M9.37299 29.6888C9.56739 29.9839 9.57695 29.9419 9.57695 29.9419C9.57695 29.9419 10.3524 29.4497 10.294 28.3792C10.2632 27.7579 9.68743 27.1182 9.68743 27.1182C9.68743 27.1182 8.66548 28.6032 9.37192 29.6888H9.37299Z" fill="#0B0D0E"/>
<path fill-rule="evenodd" clip-rule="evenodd" d="M4.82812 27.1539C4.82812 27.1539 5.18825 28.1931 5.69073 28.499C6.55651 29.0256 7.30863 28.499 7.30863 28.499C7.30863 28.499 7.35006 28.5065 7.19072 28.1931C6.59794 27.0343 4.82812 27.1539 4.82812 27.1539Z" fill="#0B0D0E"/>
<path fill-rule="evenodd" clip-rule="evenodd" d="M8.00795 28.1576C8.00795 28.1576 8.85355 27.8098 8.98103 26.7458C9.05327 26.1276 8.59966 25.3975 8.59966 25.3975C8.59966 25.3975 7.33869 26.679 7.84754 27.8733C7.98564 28.1996 8.00689 28.1576 8.00689 28.1576H8.00795Z" fill="#0B0D0E"/>
<path fill-rule="evenodd" clip-rule="evenodd" d="M3.81055 24.5753C3.81055 24.5753 3.98689 25.6641 4.42669 26.0496C5.18837 26.7205 6.02016 26.3339 6.02016 26.3339C6.02016 26.3339 6.05841 26.3479 5.9543 26.0108C5.57293 24.7681 3.81055 24.5742 3.81055 24.5742V24.5753Z" fill="#0B0D0E"/>
<path fill-rule="evenodd" clip-rule="evenodd" d="M6.76815 26.1243C6.76815 26.1243 7.66156 25.9316 7.96963 24.9053C8.15022 24.3119 7.82728 23.5117 7.82728 23.5117C7.82728 23.5117 6.36553 24.5509 6.66298 25.8153C6.74266 26.1599 6.76709 26.1243 6.76709 26.1243H6.76815Z" fill="#0B0D0E"/>
<path fill-rule="evenodd" clip-rule="evenodd" d="M3.24911 21.8574C3.24911 21.8574 3.2353 22.9602 3.60605 23.42C4.24344 24.2137 5.12622 23.9822 5.12622 23.9822C5.12622 23.9822 5.16128 24.0037 5.11879 23.6516C4.952 22.3593 3.24805 21.8574 3.24805 21.8574H3.24911Z" fill="#0B0D0E"/>
<path fill-rule="evenodd" clip-rule="evenodd" d="M5.89453 23.9009C5.89453 23.9009 6.80599 23.8697 7.28722 22.9144C7.56449 22.3598 7.38389 21.5166 7.38389 21.5166C7.38389 21.5166 5.76599 22.2823 5.84247 23.5811C5.86372 23.9321 5.89453 23.9009 5.89453 23.9009Z" fill="#0B0D0E"/>
<path fill-rule="evenodd" clip-rule="evenodd" d="M4.64498 21.4998C4.64498 21.4998 4.67579 21.5278 4.69385 21.1735C4.75228 19.8737 3.1588 19.0811 3.1588 19.0811C3.1588 19.0811 2.95802 20.1623 3.24166 20.6824C3.73351 21.5741 4.64498 21.5009 4.64498 21.5009V21.4998Z" fill="#0B0D0E"/>
<path fill-rule="evenodd" clip-rule="evenodd" d="M5.41702 21.5635C5.41702 21.5635 6.32105 21.6938 6.95844 20.8366C7.326 20.338 7.29413 19.4775 7.29413 19.4775C7.29413 19.4775 5.56893 19.9482 5.42021 21.2405C5.38196 21.5883 5.41702 21.5635 5.41702 21.5635Z" fill="#0B0D0E"/>
<path fill-rule="evenodd" clip-rule="evenodd" d="M3.54994 16.3301C3.54994 16.3301 3.16538 17.3585 3.35554 17.9207C3.68486 18.8867 4.59526 18.9739 4.59526 18.9739C4.59526 18.9739 4.62288 19.0052 4.69937 18.6616C4.97982 17.3941 3.54888 16.3301 3.54888 16.3301H3.54994Z" fill="#0B0D0E"/>
<path fill-rule="evenodd" clip-rule="evenodd" d="M5.34766 19.1717C5.34766 19.1717 6.21664 19.4593 6.99 18.7259C7.43724 18.3005 7.55515 17.4443 7.55515 17.4443C7.55515 17.4443 5.77471 17.6026 5.40715 18.8486C5.30623 19.1922 5.34872 19.1717 5.34872 19.1717H5.34766Z" fill="#0B0D0E"/>
<path fill-rule="evenodd" clip-rule="evenodd" d="M5.13736 16.1901C5.6324 14.9893 4.4033 13.6895 4.4033 13.6895C4.4033 13.6895 3.84878 14.6371 3.94226 15.2208C4.10161 16.2321 4.98439 16.4776 4.98439 16.4776C4.98439 16.4776 5.00139 16.5196 5.1363 16.1901H5.13736Z" fill="#0B0D0E"/>
<path fill-rule="evenodd" clip-rule="evenodd" d="M5.68768 16.8083C5.68768 16.8083 6.49504 17.2433 7.38101 16.6575C7.89411 16.3172 8.1565 15.4955 8.1565 15.4955C8.1565 15.4955 6.37606 15.3372 5.80135 16.5035C5.64519 16.8201 5.68662 16.8093 5.68662 16.8093L5.68768 16.8083Z" fill="#0B0D0E"/>
<path fill-rule="evenodd" clip-rule="evenodd" d="M5.78728 14.0935C5.78728 14.0935 5.80109 14.1322 5.98806 13.8372C6.68069 12.7419 5.6938 11.2461 5.6938 11.2461C5.6938 11.2461 4.98417 12.0818 4.97673 12.6752C4.96292 13.6939 5.78728 14.0935 5.78728 14.0935Z" fill="#0B0D0E"/>
<path fill-rule="evenodd" clip-rule="evenodd" d="M6.59256 14.2588C6.38435 14.5431 6.43003 14.5399 6.43003 14.5399C6.43003 14.5399 7.15028 15.1085 8.12442 14.6906C8.68851 14.4483 9.08688 13.6826 9.08688 13.6826C9.08688 13.6826 7.35849 13.212 6.59256 14.2588Z" fill="#0B0D0E"/>
<path fill-rule="evenodd" clip-rule="evenodd" d="M6.43928 10.3398C6.24912 11.3446 6.99381 11.8809 6.99381 11.8809C6.99381 11.8809 7.00124 11.9229 7.23602 11.6634C8.10499 10.7081 7.38793 9.06152 7.38793 9.06152C7.38793 9.06152 6.54657 9.75722 6.43928 10.3398Z" fill="#0B0D0E"/>
<path fill-rule="evenodd" clip-rule="evenodd" d="M7.75494 12.186C7.50211 12.4283 7.54354 12.4316 7.54354 12.4316C7.54354 12.4316 8.15331 13.1197 9.18588 12.8774C9.78184 12.7374 10.3045 12.0557 10.3045 12.0557C10.3045 12.0557 8.68659 11.29 7.75494 12.186Z" fill="#0B0D0E"/>
<path fill-rule="evenodd" clip-rule="evenodd" d="M8.83248 9.74601C9.85124 8.95555 9.42844 7.21094 9.42844 7.21094C9.42844 7.21094 8.47979 7.74832 8.27158 8.30294C7.91145 9.25817 8.55521 9.91832 8.55521 9.91832C8.55521 9.91832 8.55521 9.96032 8.83248 9.74601Z" fill="#0B0D0E"/>
<path fill-rule="evenodd" clip-rule="evenodd" d="M10.5474 11.2841C11.1603 11.2529 11.7913 10.6692 11.7913 10.6692C11.7913 10.6692 10.3264 9.63318 9.25558 10.3461C8.96451 10.5432 9.00594 10.5529 9.00594 10.5529C9.00594 10.5529 9.49036 11.339 10.5474 11.283V11.2841Z" fill="#0B0D0E"/>
<path fill-rule="evenodd" clip-rule="evenodd" d="M10.735 8.13824C11.8748 7.54163 11.7569 5.74316 11.7569 5.74316C11.7569 5.74316 10.7318 6.10824 10.4301 6.61439C9.91062 7.49209 10.4301 8.25455 10.4301 8.25455C10.4301 8.25455 10.4269 8.29978 10.735 8.13824Z" fill="#0B0D0E"/>
<path fill-rule="evenodd" clip-rule="evenodd" d="M13.4881 9.57065C13.4881 9.57065 12.224 8.29234 11.0459 8.80819C10.724 8.94819 10.7654 8.9665 10.7654 8.9665C10.7654 8.9665 11.1085 9.82373 12.1581 9.95726C12.7679 10.0305 13.4881 9.57065 13.4881 9.57065Z" fill="#0B0D0E"/>
<path fill-rule="evenodd" clip-rule="evenodd" d="M14.8779 6.44514C14.8779 6.44514 13.1007 6.27606 12.5153 7.43591C12.356 7.75145 12.3974 7.74175 12.3974 7.74175C12.3974 7.74175 13.2005 8.18437 14.0908 7.60499C14.6102 7.26791 14.8769 6.44622 14.8769 6.44622L14.8779 6.44514Z" fill="#0B0D0E"/>
<path fill-rule="evenodd" clip-rule="evenodd" d="M24.619 33.8635C24.2972 34.0003 24.3354 34.0219 24.3354 34.0219C24.3354 34.0219 24.5776 34.9179 25.5751 35.0794C26.1541 35.1742 27.0857 34.6088 27.0857 34.6088C27.0857 34.6088 25.8003 33.3617 24.619 33.8646V33.8635Z" fill="#0B0D0E"/>
<path fill-rule="evenodd" clip-rule="evenodd" d="M24.3098 33.1893C25.4561 32.6067 25.3042 30.8018 25.3042 30.8018C25.3042 30.8018 24.4936 31.0656 24.1579 31.5879C23.579 32.4871 24.0092 33.3045 24.0092 33.3045C24.0092 33.3045 23.9986 33.3498 24.3109 33.1882L24.3098 33.1893Z" fill="#0B0D0E"/>
<path fill-rule="evenodd" clip-rule="evenodd" d="M26.9423 32.9966C26.6481 33.1861 26.6895 33.2001 26.6895 33.2001C26.6895 33.2001 27.0804 34.039 28.0928 34.0218C28.6782 34.011 29.5025 33.2949 29.5025 33.2949C29.5025 33.2949 28.0238 32.2976 26.9423 32.9966Z" fill="#0B0D0E"/>
<path fill-rule="evenodd" clip-rule="evenodd" d="M26.5265 32.3887C27.5548 31.6122 27.0948 29.8633 27.0948 29.8633C27.0948 29.8633 26.3395 30.2671 26.1005 30.8401C25.6883 31.8265 26.2492 32.5577 26.2492 32.5577C26.2492 32.5577 26.246 32.5997 26.5265 32.3887Z" fill="#0B0D0E"/>
<path fill-rule="evenodd" clip-rule="evenodd" d="M30.3898 32.5467C30.9646 32.4347 31.6508 31.5807 31.6508 31.5807C31.6508 31.5807 30.0265 30.8538 29.0843 31.7347C28.8282 31.9738 28.8697 31.9802 28.8697 31.9802C28.8697 31.9802 29.3998 32.7384 30.3898 32.5456V32.5467Z" fill="#0B0D0E"/>
<path fill-rule="evenodd" clip-rule="evenodd" d="M27.885 29.7583C27.646 30.8051 28.3248 31.4232 28.3248 31.4232C28.3248 31.4232 28.328 31.4685 28.567 31.2089C29.4466 30.2645 28.6955 28.6211 28.6955 28.6211C28.6955 28.6211 28.0231 29.1552 27.885 29.7594V29.7583Z" fill="#0B0D0E"/>
<path fill-rule="evenodd" clip-rule="evenodd" d="M32.4014 30.6828C32.9485 30.4717 33.4786 29.51 33.4786 29.51C33.4786 29.51 31.7534 29.0814 30.9779 30.1142C30.7665 30.3953 30.808 30.3953 30.808 30.3953C30.808 30.3953 31.4592 31.0479 32.4014 30.6828Z" fill="#0B0D0E"/>
<path fill-rule="evenodd" clip-rule="evenodd" d="M29.4579 28.3792C29.4027 29.4497 30.175 29.9419 30.175 29.9419C30.175 29.9419 30.1856 29.9839 30.3789 29.6888C31.0854 28.6032 30.0602 27.1182 30.0602 27.1182C30.0602 27.1182 29.4887 27.7611 29.4579 28.3792Z" fill="#0B0D0E"/>
<path fill-rule="evenodd" clip-rule="evenodd" d="M34.9229 27.1539C34.9229 27.1539 33.1488 27.0344 32.5603 28.1899C32.4009 28.5054 32.4423 28.4958 32.4423 28.4958C32.4423 28.4958 33.1945 29.0224 34.0603 28.4958C34.5627 28.1942 34.9229 27.1539 34.9229 27.1539Z" fill="#0B0D0E"/>
<path fill-rule="evenodd" clip-rule="evenodd" d="M30.771 26.7458C30.8996 27.8098 31.7483 28.1576 31.7483 28.1576C31.7483 28.1576 31.7653 28.1996 31.9045 27.8733C32.4134 26.679 31.1535 25.3975 31.1535 25.3975C31.1535 25.3975 30.6967 26.1276 30.7721 26.7458H30.771Z" fill="#0B0D0E"/>
<path fill-rule="evenodd" clip-rule="evenodd" d="M35.9414 24.5752C35.9414 24.5752 34.1748 24.768 33.7934 26.0118C33.6893 26.3489 33.7276 26.3349 33.7276 26.3349C33.7276 26.3349 34.5594 26.7215 35.321 26.0506C35.7683 25.6607 35.9414 24.5763 35.9414 24.5763V24.5752Z" fill="#0B0D0E"/>
<path fill-rule="evenodd" clip-rule="evenodd" d="M32.9836 26.1243C32.9836 26.1243 33.008 26.1599 33.0909 25.8153C33.3883 24.5509 31.9234 23.5117 31.9234 23.5117C31.9234 23.5117 31.6015 24.3119 31.781 24.9053C32.0891 25.9305 32.9836 26.1243 32.9836 26.1243Z" fill="#0B0D0E"/>
<path fill-rule="evenodd" clip-rule="evenodd" d="M36.151 23.4171C36.5186 22.9573 36.5079 21.8545 36.5079 21.8545C36.5079 21.8545 34.804 22.3563 34.6372 23.6454C34.5926 23.9965 34.6298 23.976 34.6298 23.976C34.6298 23.976 35.5125 24.2108 36.1499 23.4182L36.151 23.4171Z" fill="#0B0D0E"/>
<path fill-rule="evenodd" clip-rule="evenodd" d="M33.9078 23.5811C33.9843 22.2823 32.3664 21.5166 32.3664 21.5166C32.3664 21.5166 32.1858 22.3631 32.4631 22.9144C32.9443 23.8697 33.8558 23.9009 33.8558 23.9009C33.8558 23.9009 33.8866 23.9321 33.9078 23.5811Z" fill="#0B0D0E"/>
<path fill-rule="evenodd" clip-rule="evenodd" d="M35.0592 21.1736C35.0762 21.5279 35.108 21.4999 35.108 21.4999C35.108 21.4999 36.0195 21.5732 36.5113 20.6815C36.795 20.1613 36.5942 19.0801 36.5942 19.0801C36.5942 19.0801 35.0007 19.8738 35.0602 21.1725L35.0592 21.1736Z" fill="#0B0D0E"/>
<path fill-rule="evenodd" clip-rule="evenodd" d="M34.3348 21.5629C34.3348 21.5629 34.373 21.5876 34.3316 21.2366C34.1829 19.9442 32.4577 19.4736 32.4577 19.4736C32.4577 19.4736 32.4269 20.3373 32.7934 20.8327C33.4308 21.6932 34.3348 21.5629 34.3348 21.5629Z" fill="#0B0D0E"/>
<path fill-rule="evenodd" clip-rule="evenodd" d="M35.156 18.9739C35.156 18.9739 36.0674 18.8856 36.3957 17.9207C36.5859 17.3585 36.2013 16.3301 36.2013 16.3301C36.2013 16.3301 34.7672 17.3941 35.0508 18.6616C35.1273 19.0095 35.1549 18.9739 35.1549 18.9739H35.156Z" fill="#0B0D0E"/>
<path fill-rule="evenodd" clip-rule="evenodd" d="M34.3453 18.8516C33.9777 17.6056 32.1973 17.4473 32.1973 17.4473C32.1973 17.4473 32.3152 18.3045 32.7624 18.7288C33.5347 19.459 34.4048 19.1747 34.4048 19.1747C34.4048 19.1747 34.4462 19.1919 34.3453 18.8516Z" fill="#0B0D0E"/>
<path fill-rule="evenodd" clip-rule="evenodd" d="M34.7718 16.4815C34.7718 16.4815 35.6556 16.236 35.8149 15.2247C35.9084 14.6389 35.3539 13.6934 35.3539 13.6934C35.3539 13.6934 34.1237 14.9921 34.6198 16.194C34.7516 16.5203 34.7718 16.4815 34.7718 16.4815Z" fill="#0B0D0E"/>
<path fill-rule="evenodd" clip-rule="evenodd" d="M31.5957 15.4951C31.5957 15.4951 31.856 16.3168 32.3712 16.6571C33.2582 17.243 34.0656 16.8079 34.0656 16.8079C34.0656 16.8079 34.107 16.8187 33.9509 16.5021C33.3761 15.3401 31.5957 15.4941 31.5957 15.4941V15.4951Z" fill="#0B0D0E"/>
<path fill-rule="evenodd" clip-rule="evenodd" d="M33.7602 13.8346C33.9471 14.133 33.961 14.091 33.961 14.091C33.961 14.091 34.7885 13.6946 34.7715 12.6683C34.7609 12.075 34.0544 11.2393 34.0544 11.2393C34.0544 11.2393 33.0676 12.7426 33.7602 13.8346Z" fill="#0B0D0E"/>
<path fill-rule="evenodd" clip-rule="evenodd" d="M30.6699 13.6792C30.6699 13.6792 31.0683 14.4449 31.6324 14.6872C32.6055 15.1082 33.3268 14.5364 33.3268 14.5364C33.3268 14.5364 33.3714 14.5396 33.1642 14.2553C32.3951 13.2129 30.6699 13.6792 30.6699 13.6792Z" fill="#0B0D0E"/>
<path fill-rule="evenodd" clip-rule="evenodd" d="M32.364 9.06152C32.364 9.06152 31.6469 10.7081 32.5159 11.6634C32.7517 11.9229 32.7581 11.8809 32.7581 11.8809C32.7581 11.8809 33.5028 11.3435 33.3126 10.3398C33.2053 9.75722 32.364 9.06152 32.364 9.06152Z" fill="#0B0D0E"/>
<path fill-rule="evenodd" clip-rule="evenodd" d="M31.9961 12.1861C31.0645 11.2944 29.4434 12.0558 29.4434 12.0558C29.4434 12.0558 29.966 12.7375 30.562 12.8775C31.5945 13.1198 32.2043 12.4316 32.2043 12.4316C32.2043 12.4316 32.2532 12.4284 31.9961 12.1861Z" fill="#0B0D0E"/>
<path fill-rule="evenodd" clip-rule="evenodd" d="M30.9202 9.74601C31.1975 9.96032 31.1975 9.91832 31.1975 9.91832C31.1975 9.91832 31.838 9.25817 31.4779 8.30294C31.2697 7.74832 30.3211 7.21094 30.3211 7.21094C30.3211 7.21094 29.8983 8.95663 30.9202 9.74601Z" fill="#0B0D0E"/>
<path fill-rule="evenodd" clip-rule="evenodd" d="M30.4967 10.3504C29.4259 9.63425 27.9609 10.6735 27.9609 10.6735C27.9609 10.6735 28.5909 11.2529 29.2049 11.2884C30.2619 11.3444 30.7463 10.5615 30.7463 10.5615C30.7463 10.5615 30.7878 10.5442 30.4967 10.3504Z" fill="#0B0D0E"/>
<path fill-rule="evenodd" clip-rule="evenodd" d="M29.3186 6.61439C29.0169 6.10501 27.9917 5.74316 27.9917 5.74316C27.9917 5.74316 27.8738 7.54055 29.0137 8.13824C29.326 8.29978 29.3154 8.25778 29.3154 8.25778C29.3154 8.25778 29.8381 7.49209 29.3186 6.61439Z" fill="#0B0D0E"/>
<path fill-rule="evenodd" clip-rule="evenodd" d="M28.7059 8.80526C27.5278 8.28941 26.2637 9.56772 26.2637 9.56772C26.2637 9.56772 26.9839 10.0276 27.5937 9.95433C28.6433 9.82403 28.9864 8.96357 28.9864 8.96357C28.9864 8.96357 29.0246 8.94633 28.7059 8.80526Z" fill="#0B0D0E"/>
<path fill-rule="evenodd" clip-rule="evenodd" d="M25.6572 7.60095C26.5474 8.18034 27.3516 7.73772 27.3516 7.73772C27.3516 7.73772 27.393 7.74849 27.2337 7.43188C26.6515 6.27311 24.8711 6.44111 24.8711 6.44111C24.8711 6.44111 25.1409 7.26603 25.6572 7.59988V7.60095Z" fill="#0B0D0E"/>
<path d="M18.2571 33.5273C18.2571 33.593 18.2444 33.6554 18.2189 33.7157C18.1934 33.776 18.1605 33.8342 18.119 33.8913C18.0787 33.9462 18.0319 34 17.9809 34.0517C17.9299 34.1034 17.88 34.153 17.8301 34.1993C17.8046 34.223 17.777 34.251 17.7461 34.2822C17.7175 34.3113 17.6888 34.3414 17.6622 34.3726C17.6346 34.4039 17.6102 34.433 17.5879 34.461C17.5677 34.4868 17.5549 34.5083 17.5496 34.5256H18.3092V34.8486H17.1311C17.1279 34.8293 17.1258 34.8056 17.1258 34.7765V34.714C17.1258 34.6311 17.1385 34.5557 17.164 34.4868C17.1916 34.4179 17.2256 34.3543 17.2681 34.2951C17.3106 34.2348 17.3584 34.1788 17.4105 34.1271C17.4646 34.0754 17.5188 34.0237 17.5709 33.972C17.6112 33.9322 17.6495 33.8956 17.6856 33.8611C17.7217 33.8245 17.7525 33.79 17.7801 33.7577C17.8078 33.7233 17.829 33.6899 17.8439 33.6565C17.8588 33.622 17.8673 33.5876 17.8673 33.5531C17.8673 33.4777 17.846 33.4239 17.8035 33.3926C17.761 33.3614 17.7079 33.3463 17.6452 33.3463C17.5995 33.3463 17.556 33.3539 17.5156 33.37C17.4763 33.384 17.4402 33.4013 17.4062 33.4217C17.3743 33.4411 17.3457 33.4605 17.3223 33.481C17.2989 33.5003 17.2809 33.5154 17.2692 33.5273L17.0801 33.258C17.1544 33.187 17.2415 33.1299 17.3403 33.0846C17.4402 33.0383 17.5475 33.0146 17.6612 33.0146C17.7653 33.0146 17.8545 33.0265 17.9289 33.0513C18.0032 33.076 18.0648 33.1094 18.1126 33.1546C18.1615 33.1977 18.1976 33.2516 18.2199 33.3151C18.2433 33.3776 18.2561 33.4476 18.2561 33.5273H18.2571ZM19.8028 33.9483C19.8028 34.2499 19.7454 34.4814 19.6318 34.644C19.5192 34.8045 19.3641 34.8842 19.1654 34.8842C18.9668 34.8842 18.8106 34.8045 18.6959 34.644C18.5833 34.4825 18.528 34.2499 18.528 33.9483C18.528 33.7986 18.5429 33.6662 18.5716 33.5499C18.6024 33.4346 18.6459 33.3366 18.7012 33.258C18.7575 33.1783 18.8244 33.118 18.903 33.0771C18.9816 33.0362 19.0687 33.0146 19.1654 33.0146C19.3641 33.0146 19.5202 33.0954 19.6318 33.258C19.7454 33.4185 19.8028 33.6479 19.8028 33.9483ZM19.415 33.9483C19.415 33.859 19.4108 33.7782 19.4023 33.705C19.3938 33.6306 19.38 33.5671 19.3619 33.5133C19.3428 33.4594 19.3173 33.4185 19.2854 33.3894C19.2536 33.3603 19.2132 33.3453 19.1654 33.3453C19.1176 33.3453 19.0783 33.3603 19.0454 33.3894C19.0146 33.4185 18.9891 33.4605 18.9689 33.5133C18.9498 33.5671 18.937 33.6306 18.9285 33.705C18.92 33.7771 18.9158 33.8579 18.9158 33.9483C18.9158 34.0388 18.92 34.1196 18.9285 34.1939C18.937 34.2682 18.9508 34.3317 18.9689 34.3856C18.9891 34.4394 19.0146 34.4803 19.0454 34.5094C19.0772 34.5385 19.1176 34.5536 19.1654 34.5536C19.2132 34.5536 19.2525 34.5385 19.2854 34.5094C19.3173 34.4803 19.3428 34.4383 19.3619 34.3856C19.3811 34.3317 19.3938 34.2682 19.4023 34.1939C19.4108 34.1196 19.415 34.0377 19.415 33.9483ZM21.1551 33.5273C21.1551 33.593 21.1424 33.6554 21.1169 33.7157C21.0914 33.776 21.0585 33.8342 21.017 33.8913C20.9767 33.9462 20.9299 34 20.8789 34.0517C20.8279 34.1034 20.778 34.153 20.7281 34.1993C20.7026 34.223 20.675 34.251 20.6441 34.2822C20.6155 34.3113 20.5868 34.3414 20.5602 34.3726C20.5326 34.4039 20.5082 34.433 20.4859 34.461C20.4657 34.4868 20.4529 34.5083 20.4476 34.5256H21.2072V34.8486H20.0291C20.0259 34.8293 20.0238 34.8056 20.0238 34.7765V34.714C20.0238 34.6311 20.0365 34.5557 20.062 34.4868C20.0896 34.4179 20.1236 34.3543 20.1661 34.2951C20.2086 34.2348 20.2564 34.1788 20.3085 34.1271C20.3626 34.0754 20.4168 34.0237 20.4689 33.972C20.5092 33.9322 20.5475 33.8956 20.5836 33.8611C20.6197 33.8245 20.6505 33.79 20.6781 33.7577C20.7058 33.7233 20.727 33.6899 20.7419 33.6565C20.7568 33.622 20.7653 33.5876 20.7653 33.5531C20.7653 33.4777 20.744 33.4239 20.7015 33.3926C20.659 33.3614 20.6059 33.3463 20.5432 33.3463C20.4975 33.3463 20.454 33.3539 20.4136 33.37C20.3743 33.384 20.3382 33.4013 20.3042 33.4217C20.2723 33.4411 20.2437 33.4605 20.2203 33.481C20.1969 33.5003 20.1789 33.5154 20.1672 33.5273L19.9781 33.258C20.0524 33.187 20.1395 33.1299 20.2383 33.0846C20.3382 33.0383 20.4455 33.0146 20.5592 33.0146C20.6633 33.0146 20.7525 33.0265 20.8269 33.0513C20.9012 33.075 20.9628 33.1094 21.0106 33.1546C21.0595 33.1977 21.0956 33.2516 21.1179 33.3151C21.1413 33.3776 21.1541 33.4476 21.1541 33.5273H21.1551ZM21.9211 34.8863C21.8754 34.8863 21.8265 34.8831 21.7755 34.8756C21.7245 34.8702 21.6757 34.8626 21.6279 34.8519C21.5801 34.8411 21.5365 34.8303 21.4983 34.8185C21.46 34.8066 21.4281 34.7948 21.4069 34.7851L21.4813 34.4642C21.5259 34.4836 21.5811 34.504 21.6491 34.5266C21.7192 34.5471 21.8042 34.5579 21.9062 34.5579C22.023 34.5579 22.1091 34.5353 22.1633 34.4911C22.2174 34.4459 22.2451 34.3856 22.2451 34.3102C22.2451 34.2639 22.2344 34.2251 22.2143 34.1939C22.1951 34.1616 22.1696 34.1357 22.1356 34.1163C22.1016 34.0959 22.0613 34.0819 22.0135 34.0754C21.9678 34.0668 21.9179 34.0625 21.8658 34.0625H21.7182V33.7523H21.886C21.9232 33.7523 21.9593 33.7491 21.9933 33.7416C22.0294 33.7351 22.0602 33.7233 22.0878 33.7082C22.1155 33.691 22.1367 33.6683 22.1516 33.6414C22.1686 33.6123 22.1771 33.5757 22.1771 33.5326C22.1771 33.5003 22.1707 33.4713 22.1569 33.4476C22.1431 33.4239 22.125 33.4034 22.1038 33.3883C22.0836 33.3733 22.0592 33.3614 22.0294 33.355C22.0018 33.3463 21.9742 33.342 21.9455 33.342C21.8722 33.342 21.8042 33.3528 21.7415 33.3754C21.6799 33.398 21.6247 33.425 21.5737 33.4583L21.4388 33.1762C21.4664 33.159 21.4972 33.1406 21.5333 33.1223C21.5705 33.103 21.6119 33.0857 21.6555 33.0706C21.7001 33.0556 21.7468 33.0426 21.7957 33.0319C21.8467 33.0211 21.8998 33.0168 21.9561 33.0168C22.0602 33.0168 22.1495 33.0297 22.2238 33.0556C22.3003 33.0793 22.363 33.1148 22.4129 33.1611C22.4618 33.2063 22.499 33.2591 22.5223 33.3216C22.5457 33.3819 22.5584 33.4486 22.5584 33.5208C22.5584 33.593 22.5393 33.6608 22.5 33.7276C22.4607 33.7933 22.4087 33.8428 22.3417 33.8773C22.4331 33.915 22.5043 33.972 22.5531 34.0474C22.6041 34.1217 22.6296 34.2111 22.6296 34.3166C22.6296 34.3996 22.6158 34.476 22.5892 34.5471C22.5616 34.616 22.5191 34.6763 22.4618 34.728C22.4044 34.7776 22.33 34.8174 22.2397 34.8465C22.1516 34.8745 22.0464 34.8874 21.9232 34.8874L21.9211 34.8863Z" fill="#0B0D0E"/>
<path d="M19.377 5.31434C19.377 5.05803 19.5777 4.85449 19.8306 4.85449C19.9517 4.85449 20.0664 4.90726 20.1461 4.98803C20.2332 5.07634 20.2778 5.19157 20.2778 5.30357C20.2778 5.42634 20.2257 5.54265 20.1461 5.61911C20.059 5.70742 19.9453 5.75265 19.8306 5.75265C19.7095 5.75265 19.5947 5.69988 19.5151 5.61911C19.4216 5.54157 19.377 5.43603 19.377 5.31326V5.31434Z" fill="#0B0D0E"/>
<path d="M20.5147 6.45985C20.5147 6.33708 20.5594 6.22077 20.6465 6.13354C20.7336 6.04523 20.8472 6 20.9683 6C21.2148 6 21.4156 6.20354 21.4156 6.44908C21.4156 6.57185 21.371 6.68815 21.2839 6.76462C21.1978 6.85292 21.0831 6.89815 20.9683 6.89815C20.8472 6.89815 20.7325 6.84538 20.6528 6.76462C20.5594 6.68708 20.5137 6.58154 20.5137 6.45877L20.5147 6.45985Z" fill="#0B0D0E"/>
<path d="M18.7407 5.95801C18.4879 5.95801 18.2871 6.16155 18.2871 6.41785C18.2871 6.54062 18.3392 6.65693 18.4188 6.73339C18.5049 6.8217 18.6196 6.86693 18.7343 6.86693C18.8554 6.86693 18.9702 6.81416 19.0499 6.73339C19.137 6.64508 19.1816 6.52985 19.1816 6.41785C19.1816 6.29508 19.1295 6.17878 19.0499 6.10232C18.9702 6.00001 18.8555 5.95801 18.7418 5.95801H18.7407Z" fill="#0B0D0E"/>
<path d="M19.8774 7.10254C19.7563 7.10254 19.6416 7.14777 19.5556 7.23608C19.4684 7.32439 19.4238 7.43962 19.4238 7.56239C19.4238 7.80792 19.6246 8.01146 19.8711 8.01146C19.9922 8.01146 20.1069 7.96623 20.1866 7.87792C20.2737 7.78962 20.3183 7.67439 20.3183 7.56239C20.3183 7.43962 20.2662 7.32331 20.1866 7.24685C20.1069 7.15531 19.9996 7.10254 19.8785 7.10254H19.8774Z" fill="#0B0D0E"/>
<path d="M19.8483 3.0919C19.6401 3.0919 19.4468 3.17267 19.2981 3.3202L16.7655 5.87682C16.6168 6.02759 16.5371 6.22144 16.5371 6.43144C16.5371 6.64144 16.6168 6.83528 16.7655 6.98605L17.7875 8.01882L18.2761 7.52344L17.1851 6.43144L17.3519 6.27313L19.8494 3.75205L22.9737 6.90851L22.9907 6.92574L23.0077 6.90851C23.1043 6.77497 23.1638 6.61021 23.1638 6.44113C23.1638 6.23005 23.0842 6.03728 22.9354 5.88651L20.4029 3.31913C20.251 3.16836 20.0598 3.09082 19.8483 3.09082V3.0919Z" fill="#0B0D0E"/>
<path d="M18.768 8.0299L18.2793 8.52206L19.3076 9.56129C19.4563 9.70129 19.6465 9.78206 19.8483 9.78206C20.0502 9.78206 20.2499 9.70129 20.3986 9.55375L22.5009 7.42898L22.0123 6.93359L19.8473 9.12082L18.7669 8.02882L18.768 8.0299Z" fill="#0B0D0E"/>
<path d="M12.1928 18.6164C12.0632 18.6164 11.9347 18.6121 11.8051 18.6024C11.6787 18.5959 11.5459 18.5765 11.4078 18.5474V16.2321C11.5161 16.2116 11.6351 16.1965 11.7647 16.1868C11.8943 16.175 12.0144 16.1696 12.1248 16.1696C12.2746 16.1696 12.4117 16.1814 12.536 16.2041C12.6624 16.2245 12.7718 16.2611 12.8621 16.3139C12.9524 16.3667 13.0225 16.4367 13.0724 16.5239C13.1245 16.609 13.151 16.7145 13.151 16.8405C13.151 17.0311 13.0607 17.1819 12.8791 17.2918C13.0289 17.3488 13.1309 17.4274 13.185 17.5265C13.2392 17.6256 13.2668 17.7365 13.2668 17.8604C13.2668 18.1102 13.1765 18.2987 12.9949 18.4258C12.8154 18.5518 12.5487 18.6153 12.1928 18.6153V18.6164ZM11.9241 17.5448V18.1619C11.9623 18.1662 12.0048 18.1705 12.0494 18.1727C12.0951 18.1748 12.145 18.1759 12.1992 18.1759C12.3575 18.1759 12.486 18.1533 12.5838 18.107C12.6815 18.0607 12.7304 17.9756 12.7304 17.8518C12.7304 17.7419 12.69 17.6633 12.6082 17.617C12.5264 17.5685 12.4095 17.5448 12.2576 17.5448H11.9241ZM11.9241 17.1345H12.1822C12.3458 17.1345 12.4616 17.1141 12.5328 17.0721C12.6029 17.029 12.6379 16.9601 12.6379 16.8653C12.6379 16.7705 12.6018 16.7016 12.5296 16.6618C12.4574 16.623 12.3501 16.6036 12.2098 16.6036C12.1642 16.6036 12.1153 16.6047 12.0632 16.6068C12.0112 16.6068 11.9644 16.609 11.9241 16.6133V17.1334V17.1345ZM13.6918 18.5851V16.1965H15.2831V16.6478H14.2229V17.1162H15.1641V17.5578H14.2229V18.1328H15.3617V18.5841H13.6928L13.6918 18.5851ZM16.3954 18.1748C16.4697 18.1748 16.5313 18.1694 16.5791 18.1576C16.6291 18.1436 16.6684 18.1264 16.6981 18.1059C16.7279 18.0833 16.748 18.0564 16.7597 18.0262C16.7714 17.9961 16.7767 17.9627 16.7767 17.9261C16.7767 17.8474 16.7406 17.7839 16.6684 17.7333C16.5961 17.6805 16.4708 17.6245 16.2944 17.5642C16.218 17.5362 16.1404 17.5061 16.0629 17.4716C15.9864 17.435 15.9163 17.3898 15.8557 17.337C15.7941 17.2821 15.7442 17.2164 15.7059 17.141C15.6677 17.0634 15.6486 16.9687 15.6486 16.8588C15.6486 16.749 15.6687 16.6499 15.7102 16.5627C15.7505 16.4733 15.809 16.3968 15.8833 16.3354C15.9577 16.273 16.049 16.2267 16.1553 16.1944C16.2615 16.1599 16.3815 16.1427 16.5154 16.1427C16.6737 16.1427 16.8107 16.1599 16.9265 16.1944C17.0423 16.2288 17.1369 16.2665 17.2123 16.3085L17.0593 16.7328C16.9934 16.6984 16.9201 16.6682 16.8383 16.6434C16.7587 16.6154 16.6631 16.6025 16.5494 16.6025C16.423 16.6025 16.3306 16.6208 16.2743 16.6574C16.2201 16.6919 16.1925 16.7458 16.1925 16.819C16.1925 16.8621 16.2031 16.8998 16.2233 16.9288C16.2434 16.959 16.2721 16.9859 16.3082 17.0118C16.3465 17.0344 16.39 17.057 16.4379 17.0774C16.4878 17.0958 16.542 17.1151 16.6014 17.1356C16.7236 17.1819 16.8309 17.2271 16.9212 17.2734C17.0115 17.3165 17.0869 17.3682 17.1454 17.4285C17.207 17.4878 17.2516 17.5588 17.2813 17.6385C17.3111 17.7193 17.3259 17.8162 17.3259 17.9314C17.3259 18.1544 17.2484 18.3278 17.0944 18.4516C16.9403 18.5733 16.7077 18.6347 16.3975 18.6347C16.2934 18.6347 16.1988 18.6282 16.1149 18.6142C16.031 18.6024 15.9566 18.5884 15.8908 18.569C15.827 18.5507 15.7718 18.5313 15.724 18.5108C15.6783 18.4904 15.6401 18.471 15.6082 18.4527L15.758 18.0251C15.8281 18.0639 15.9141 18.0994 16.0161 18.1318C16.1202 18.1619 16.2477 18.177 16.3964 18.177L16.3954 18.1748ZM19.4123 16.1965V16.6553H18.7016V18.5851H18.1716V16.6553H17.4609V16.1965H19.4123ZM21.4913 18.6325C21.3256 18.6325 21.1832 18.6099 21.0632 18.5636C20.9431 18.5151 20.8433 18.4494 20.7636 18.3676C20.6861 18.2825 20.6287 18.1824 20.5904 18.0682C20.5543 17.9508 20.5363 17.8227 20.5363 17.6827V16.1976H21.0664V17.6385C21.0664 17.7354 21.077 17.8173 21.0972 17.8862C21.1195 17.953 21.1492 18.0079 21.1853 18.0521C21.2236 18.093 21.2693 18.1231 21.3213 18.1414C21.3755 18.1598 21.435 18.1694 21.4977 18.1694C21.6273 18.1694 21.7314 18.1296 21.81 18.0488C21.8918 17.9681 21.9322 17.8313 21.9322 17.6385V16.1976H22.4622V17.6827C22.4622 17.8227 22.4431 17.9519 22.4049 18.0682C22.3666 18.1856 22.3071 18.2868 22.2285 18.3719C22.1489 18.4548 22.0479 18.5184 21.9258 18.5647C21.8036 18.611 21.6581 18.6336 21.4902 18.6336L21.4913 18.6325ZM23.6159 18.1738C23.6903 18.1738 23.7519 18.1684 23.7997 18.1565C23.8496 18.1425 23.8889 18.1253 23.9187 18.1048C23.9484 18.0822 23.9686 18.0553 23.9803 18.0251C23.992 17.995 23.9973 17.9616 23.9973 17.925C23.9973 17.8464 23.9612 17.7828 23.8889 17.7322C23.8167 17.6794 23.6913 17.6234 23.515 17.5631C23.4385 17.5351 23.361 17.505 23.2834 17.4705C23.2059 17.4339 23.1368 17.3887 23.0763 17.3359C23.0147 17.281 22.9658 17.2153 22.9265 17.1399C22.8882 17.0624 22.8691 16.9676 22.8691 16.8578C22.8691 16.7479 22.8893 16.6488 22.9307 16.5616C22.9711 16.4722 23.0295 16.3958 23.1039 16.3344C23.1782 16.2719 23.2696 16.2256 23.3758 16.1933C23.4821 16.1588 23.6021 16.1416 23.736 16.1416C23.8943 16.1416 24.0313 16.1588 24.1471 16.1933C24.2629 16.2278 24.3574 16.2654 24.4328 16.3074L24.2799 16.7318C24.214 16.6973 24.1407 16.6671 24.0589 16.6424C23.9792 16.6144 23.8836 16.6014 23.77 16.6014C23.6425 16.6014 23.5511 16.6198 23.4948 16.6564C23.4406 16.6908 23.413 16.7447 23.413 16.8179C23.413 16.861 23.4236 16.8987 23.4438 16.9278C23.464 16.9579 23.4927 16.9848 23.5288 17.0107C23.5671 17.0333 23.6106 17.0559 23.6584 17.0764C23.7083 17.0947 23.7625 17.1141 23.822 17.1345C23.9442 17.1808 24.0504 17.2261 24.1418 17.2724C24.2321 17.3154 24.3075 17.3671 24.3659 17.4274C24.4275 17.4867 24.4721 17.5578 24.5019 17.6374C24.5316 17.7182 24.5465 17.8151 24.5465 17.9304C24.5465 18.1533 24.47 18.3267 24.3149 18.4505C24.1609 18.5722 23.9282 18.6336 23.618 18.6336C23.5139 18.6336 23.4194 18.6271 23.3355 18.6131C23.2515 18.6013 23.1772 18.5873 23.1113 18.5679C23.0476 18.5496 22.9923 18.5302 22.9445 18.5098C22.8989 18.4893 22.8606 18.4699 22.8287 18.4516L22.9785 18.0241C23.0486 18.0628 23.1347 18.0984 23.2367 18.1307C23.3408 18.1608 23.4683 18.1759 23.617 18.1759L23.6159 18.1738ZM24.9523 18.5841V16.1954H26.5437V16.6467H25.4835V17.1151H26.4247V17.5567H25.4835V18.1318H26.6223V18.583H24.9534L24.9523 18.5841ZM27.7037 16.1685C28.0575 16.1685 28.3284 16.2331 28.5164 16.3613C28.7044 16.4873 28.799 16.6854 28.799 16.9536C28.799 17.1216 28.7607 17.2584 28.6832 17.3639C28.6088 17.4673 28.4994 17.5491 28.357 17.6084C28.4048 17.6676 28.4548 17.7376 28.5068 17.8151C28.5589 17.8905 28.6099 17.9713 28.6598 18.0564C28.7119 18.1393 28.7618 18.2265 28.8096 18.3181C28.8574 18.4074 28.9009 18.4958 28.9424 18.583H28.3475C28.305 18.5044 28.2604 18.4258 28.2147 18.345C28.1722 18.2642 28.1265 18.1867 28.0787 18.1102C28.033 18.0348 27.9884 17.9638 27.9427 17.897C27.8971 17.8281 27.8524 17.7656 27.8068 17.7107H27.5454V18.583H27.0153V16.2288C27.1311 16.2062 27.2501 16.1901 27.3723 16.1804C27.4966 16.1718 27.6081 16.1664 27.7058 16.1664L27.7037 16.1685ZM27.7345 16.6273C27.6963 16.6273 27.6612 16.6284 27.6294 16.6305C27.5996 16.6327 27.572 16.6348 27.5444 16.637V17.2853H27.6942C27.8939 17.2853 28.0362 17.2594 28.1223 17.2099C28.2083 17.1593 28.2519 17.0731 28.2519 16.9514C28.2519 16.8298 28.2073 16.7511 28.1191 16.7038C28.033 16.6531 27.9045 16.6284 27.7345 16.6284V16.6273ZM9.88867 22.5698V20.1811H11.48V20.6324H10.4198V21.1008H11.361V21.5424H10.4198V22.1174H11.5586V22.5687H9.88973L9.88867 22.5698ZM13.3699 22.5698C13.304 22.4362 13.2318 22.3016 13.1521 22.167C13.0746 22.0291 12.9853 21.8891 12.8833 21.747C12.8515 21.7879 12.8111 21.8461 12.7612 21.9193C12.7134 21.9925 12.6645 22.0711 12.6146 22.1541C12.5668 22.237 12.5222 22.3156 12.4786 22.3921C12.435 22.4674 12.4042 22.5278 12.383 22.5708H11.7775C11.8773 22.3845 11.9931 22.1896 12.1238 21.985C12.2576 21.7804 12.4064 21.5639 12.5689 21.3334L11.8104 20.1822H12.4531L12.912 20.9264L13.3603 20.1822H13.9658L13.218 21.3399C13.4081 21.5898 13.5685 21.8224 13.6971 22.0356C13.8267 22.2467 13.9287 22.4254 14.003 22.5698H13.3678H13.3699ZM15.0175 20.1542C15.3692 20.1542 15.639 20.2178 15.827 20.3438C16.0151 20.4676 16.1096 20.6722 16.1096 20.9576C16.1096 21.243 16.014 21.453 15.8238 21.5811C15.6337 21.7071 15.3617 21.7707 15.008 21.7707H14.8412V22.5698H14.3111V20.2156C14.4269 20.193 14.5491 20.1768 14.6787 20.1671C14.8083 20.1574 14.9209 20.1531 15.0186 20.1531L15.0175 20.1542ZM15.0515 20.613C15.0133 20.613 14.975 20.6141 14.9357 20.6162C14.8996 20.6184 14.8677 20.6205 14.8401 20.6227V21.3119H15.0069C15.1907 21.3119 15.3288 21.2861 15.4212 21.2365C15.5147 21.1859 15.5604 21.0922 15.5604 20.9544C15.5604 20.8876 15.5476 20.8327 15.5232 20.7885C15.5009 20.7454 15.4669 20.711 15.4212 20.6851C15.3787 20.6571 15.3245 20.6388 15.2619 20.6302C15.1981 20.6184 15.128 20.613 15.0515 20.613ZM16.4984 22.5708V20.1822H18.0898V20.6334H17.0296V21.1019H17.9708V21.5434H17.0296V22.1185H18.1684V22.5698H16.4995L16.4984 22.5708ZM19.2498 20.1553C19.6036 20.1553 19.8744 20.2199 20.0625 20.3481C20.2505 20.4741 20.3451 20.6722 20.3451 20.9404C20.3451 21.1084 20.3068 21.2451 20.2293 21.3507C20.1549 21.4541 20.0455 21.5359 19.9031 21.5951C19.9509 21.6544 20.0009 21.7244 20.0529 21.8019C20.105 21.8773 20.156 21.9581 20.2059 22.0431C20.2579 22.1261 20.3079 22.2133 20.3557 22.3048C20.4035 22.3942 20.447 22.4825 20.4885 22.5698H19.8936C19.85 22.4911 19.8065 22.4125 19.7608 22.3318C19.7183 22.251 19.6726 22.1734 19.6248 22.097C19.5791 22.0216 19.5345 21.9505 19.4888 21.8838C19.4431 21.8148 19.3985 21.7524 19.3528 21.6974H19.0915V22.5698H18.5614V20.2156C18.6772 20.193 18.7962 20.1768 18.9184 20.1671C19.0427 20.1574 19.1542 20.1531 19.2519 20.1531L19.2498 20.1553ZM19.2806 20.6141C19.2424 20.6141 19.2073 20.6151 19.1754 20.6173C19.1457 20.6194 19.1181 20.6216 19.0905 20.6238V21.2721H19.2402C19.44 21.2721 19.5823 21.2462 19.6684 21.1967C19.7544 21.1461 19.798 21.0599 19.798 20.9382C19.798 20.8165 19.7533 20.7379 19.6652 20.6905C19.5791 20.6399 19.4506 20.6151 19.2806 20.6151V20.6141ZM20.8273 20.1833H21.3574V22.5719H20.8273V20.1833ZM21.9024 22.5719V20.1833H23.4938V20.6345H22.4336V21.103H23.3748V21.5445H22.4336V22.1196H23.5724V22.5708H21.9035L21.9024 22.5719ZM25.5451 22.5719C25.3932 22.2984 25.2285 22.0291 25.0522 21.7621C24.8758 21.4961 24.6867 21.2441 24.4881 21.0071V22.5719H23.9644V20.1833H24.3957C24.47 20.2587 24.5529 20.3524 24.6442 20.4622C24.7345 20.5721 24.827 20.6905 24.9194 20.8176C25.015 20.9414 25.1085 21.0718 25.202 21.2074C25.2954 21.341 25.3826 21.4691 25.4633 21.593V20.1833H25.9902V22.5719H25.5451ZM27.6081 22.6204C27.2246 22.6204 26.9325 22.5127 26.7306 22.2962C26.5309 22.0798 26.4311 21.7739 26.4311 21.3765C26.4311 21.1794 26.4619 21.0028 26.5224 20.8488C26.584 20.6927 26.668 20.5613 26.7742 20.4558C26.8804 20.3481 27.0079 20.2662 27.1545 20.2113C27.3022 20.1564 27.4615 20.1284 27.6336 20.1284C27.7335 20.1284 27.8238 20.1359 27.9056 20.1521C27.9874 20.1661 28.0585 20.1833 28.1201 20.2038C28.1818 20.2221 28.2327 20.2414 28.2731 20.2619C28.3135 20.2824 28.3432 20.2985 28.3613 20.3104L28.2083 20.7444C28.1361 20.7056 28.0511 20.6722 27.9534 20.6442C27.8578 20.6162 27.7494 20.6033 27.6272 20.6033C27.5454 20.6033 27.4647 20.6173 27.3861 20.6442C27.3085 20.6722 27.2395 20.7164 27.1789 20.7788C27.1194 20.8381 27.0727 20.9167 27.0366 21.0136C27.0005 21.1105 26.9824 21.2268 26.9824 21.3647C26.9824 21.4745 26.9941 21.5779 27.0164 21.6748C27.0408 21.7696 27.0801 21.8504 27.1322 21.9193C27.1864 21.9882 27.2565 22.0431 27.3425 22.0851C27.4286 22.1239 27.5327 22.1433 27.6549 22.1433C27.7313 22.1433 27.8014 22.139 27.862 22.1293C27.9236 22.1196 27.9778 22.1099 28.0256 22.0981C28.0734 22.0841 28.1148 22.069 28.151 22.0528C28.1871 22.0367 28.22 22.0216 28.2497 22.0076L28.3963 22.4384C28.322 22.4847 28.2158 22.5256 28.0798 22.5622C27.9438 22.5988 27.7866 22.6171 27.607 22.6171L27.6081 22.6204ZM28.7384 22.5719V20.1833H30.3298V20.6345H29.2696V21.103H30.2108V21.5445H29.2696V22.1196H30.4084V22.5708H28.7395L28.7384 22.5719Z" fill="#0B0D0E"/>
<path d="M16.3014 30.1321C16.1102 30.1321 15.9636 30.0782 15.8627 29.9705C15.7628 29.8629 15.7129 29.7089 15.7129 29.5107C15.7129 29.4116 15.7278 29.3244 15.7586 29.2469C15.7894 29.1682 15.8308 29.1036 15.8839 29.0509C15.937 28.997 16.0008 28.9561 16.0741 28.9281C16.1474 28.9001 16.2281 28.8872 16.3142 28.8872C16.3641 28.8872 16.4098 28.8915 16.4501 28.899C16.4905 28.9055 16.5266 28.9141 16.5574 28.9249C16.5882 28.9345 16.6137 28.9442 16.6339 28.9539C16.6541 28.9647 16.669 28.9722 16.6785 28.9776L16.602 29.1952C16.5659 29.1758 16.5234 29.1585 16.4746 29.1456C16.4268 29.1316 16.3726 29.1252 16.311 29.1252C16.2706 29.1252 16.2302 29.1316 16.1899 29.1456C16.1516 29.1596 16.1166 29.1822 16.0858 29.2124C16.056 29.2425 16.0326 29.2813 16.0146 29.3298C15.9965 29.3782 15.987 29.4364 15.987 29.5053C15.987 29.5602 15.9923 29.6119 16.004 29.6604C16.0167 29.7078 16.0358 29.7487 16.0613 29.7832C16.089 29.8176 16.124 29.8456 16.1665 29.8661C16.2101 29.8855 16.2621 29.8952 16.3227 29.8952C16.3609 29.8952 16.396 29.893 16.4268 29.8887C16.4576 29.8844 16.4841 29.879 16.5086 29.8736C16.5319 29.8672 16.5532 29.8596 16.5712 29.851C16.5893 29.8424 16.6063 29.8359 16.6201 29.8284L16.6934 30.0438C16.6562 30.0664 16.6031 30.0869 16.5351 30.1062C16.4671 30.1245 16.3885 30.1342 16.2993 30.1342L16.3014 30.1321ZM17.2076 29.9285C17.232 29.9285 17.2564 29.9285 17.2787 29.9264C17.3011 29.9253 17.3191 29.9232 17.3329 29.921V29.7261C17.3223 29.7239 17.3074 29.7218 17.2872 29.7196C17.2671 29.7175 17.2479 29.7164 17.2309 29.7164C17.2076 29.7164 17.1842 29.7185 17.163 29.7218C17.1428 29.7239 17.1247 29.7293 17.1088 29.7369C17.0928 29.7444 17.0801 29.7562 17.0716 29.7692C17.062 29.7832 17.0578 29.8004 17.0578 29.8209C17.0578 29.8607 17.0705 29.8898 17.0971 29.9049C17.1247 29.9199 17.1608 29.9275 17.2076 29.9275V29.9285ZM17.1874 29.1769C17.2617 29.1769 17.3244 29.1855 17.3744 29.2027C17.4243 29.2199 17.4636 29.2447 17.4933 29.277C17.5241 29.3093 17.5454 29.3481 17.5581 29.3944C17.5709 29.4407 17.5773 29.4913 17.5773 29.5473V30.0815C17.5411 30.0901 17.4901 30.0987 17.4264 30.1095C17.3616 30.1213 17.2841 30.1267 17.1916 30.1267C17.1343 30.1267 17.0812 30.1213 17.0334 30.1116C16.9866 30.1009 16.9462 30.0847 16.9122 30.0621C16.8783 30.0384 16.8517 30.0072 16.8336 29.9695C16.8156 29.9318 16.806 29.8855 16.806 29.8295C16.806 29.7735 16.8166 29.7315 16.8368 29.6949C16.8581 29.6582 16.8868 29.6292 16.9218 29.6065C16.9569 29.585 16.9972 29.5689 17.0429 29.5602C17.0886 29.5495 17.1353 29.5452 17.1842 29.5452C17.2171 29.5452 17.2458 29.5473 17.2713 29.5505C17.2968 29.5527 17.3181 29.5559 17.334 29.5613V29.5376C17.334 29.4945 17.3212 29.459 17.2947 29.4321C17.2681 29.4052 17.2235 29.3922 17.1587 29.3922C17.1151 29.3922 17.0727 29.3955 17.0312 29.403C16.9887 29.4084 16.9526 29.417 16.9229 29.4289L16.891 29.2221C16.9059 29.2178 16.9239 29.2135 16.9452 29.2081C16.9675 29.2027 16.9919 29.1973 17.0185 29.1941C17.045 29.1898 17.0716 29.1865 17.1003 29.1833C17.13 29.1801 17.1587 29.1779 17.1884 29.1779L17.1874 29.1769ZM18.0627 29.9232C18.1095 29.9232 18.1424 29.9189 18.1615 29.9092C18.1807 29.8995 18.1902 29.8822 18.1902 29.8553C18.1902 29.8349 18.1775 29.8165 18.153 29.8015C18.1286 29.7853 18.0904 29.767 18.0394 29.7476C18.0001 29.7325 17.9639 29.7175 17.931 29.7013C17.8991 29.6852 17.8726 29.6658 17.8492 29.6442C17.8269 29.6216 17.8088 29.5947 17.7961 29.5635C17.7833 29.5322 17.777 29.4945 17.777 29.4515C17.777 29.3664 17.8078 29.2996 17.8705 29.2501C17.9331 29.2005 18.0181 29.1758 18.1275 29.1758C18.1817 29.1758 18.2338 29.1812 18.2837 29.1909C18.3336 29.2005 18.3729 29.2102 18.4027 29.2221L18.3581 29.4224C18.3283 29.4116 18.2964 29.403 18.2614 29.3944C18.2274 29.3869 18.1892 29.3825 18.1456 29.3825C18.0659 29.3825 18.0266 29.4052 18.0266 29.4493C18.0266 29.4601 18.0287 29.4687 18.0319 29.4773C18.0351 29.4849 18.0426 29.4935 18.0521 29.501C18.0627 29.5075 18.0755 29.5161 18.0925 29.5247C18.1105 29.5322 18.1328 29.5419 18.1605 29.5527C18.2157 29.5732 18.2624 29.5936 18.2986 29.6152C18.3347 29.6345 18.3634 29.6561 18.3836 29.6809C18.4048 29.7035 18.4197 29.7293 18.4282 29.7584C18.4377 29.7875 18.442 29.8209 18.442 29.8585C18.442 29.9479 18.409 30.0158 18.3421 30.0621C18.2763 30.1084 18.1828 30.131 18.0617 30.131C17.982 30.131 17.9161 30.1245 17.863 30.1105C17.811 30.0965 17.7748 30.0847 17.7547 30.0761L17.7972 29.8672C17.8407 29.8844 17.8843 29.8984 17.9299 29.9081C17.9756 29.9167 18.0202 29.9221 18.0638 29.9221L18.0627 29.9232ZM18.8839 30.1073H18.6311V29.2005H18.8839V30.1073ZM18.9073 28.9389C18.9073 28.9862 18.8924 29.0229 18.8616 29.0509C18.8319 29.0767 18.7968 29.0907 18.7564 29.0907C18.7161 29.0907 18.6799 29.0778 18.6491 29.0509C18.6194 29.0229 18.6045 28.9862 18.6045 28.9389C18.6045 28.8915 18.6194 28.8549 18.6491 28.829C18.6799 28.801 18.715 28.7881 18.7564 28.7881C18.7979 28.7881 18.8319 28.8021 18.8616 28.829C18.8924 28.8549 18.9073 28.8925 18.9073 28.9389ZM19.1219 29.2318C19.1644 29.2189 19.2207 29.2081 19.2886 29.1973C19.3566 29.1855 19.4278 29.1801 19.5032 29.1801C19.5787 29.1801 19.6424 29.1909 19.6923 29.2113C19.7433 29.2307 19.7837 29.2587 19.8134 29.2953C19.8432 29.3319 19.8644 29.3761 19.8761 29.4267C19.8889 29.4773 19.8952 29.5333 19.8952 29.5958V30.1073H19.6424V29.627C19.6424 29.5441 19.6318 29.4859 19.6105 29.4515C19.5893 29.417 19.5489 29.3998 19.4894 29.3998C19.4714 29.3998 19.4522 29.4009 19.4321 29.403C19.4119 29.4041 19.3938 29.4062 19.3779 29.4084V30.1084H19.1251V29.2329L19.1219 29.2318ZM20.9586 29.6518C20.9586 29.7229 20.948 29.7885 20.9278 29.8478C20.9076 29.9059 20.8779 29.9565 20.8396 29.9996C20.8014 30.0405 20.7546 30.0729 20.7005 30.0965C20.6473 30.1192 20.5868 30.131 20.5199 30.131C20.4529 30.131 20.3945 30.1192 20.3393 30.0965C20.2862 30.0739 20.2405 30.0416 20.2012 29.9996C20.1629 29.9576 20.1321 29.907 20.1109 29.8478C20.0896 29.7875 20.079 29.7229 20.079 29.6518C20.079 29.5807 20.0896 29.5161 20.1109 29.4569C20.1332 29.3987 20.164 29.3481 20.2022 29.3072C20.2415 29.2662 20.2883 29.2339 20.3414 29.2102C20.3956 29.1876 20.4551 29.1758 20.5177 29.1758C20.5804 29.1758 20.641 29.1876 20.6941 29.2102C20.7483 29.2329 20.795 29.2652 20.8333 29.3072C20.8715 29.3481 20.9012 29.3987 20.9236 29.4569C20.9448 29.515 20.9554 29.5807 20.9554 29.6518H20.9586ZM20.7005 29.6518C20.7005 29.5721 20.6845 29.5107 20.6527 29.4655C20.6219 29.4192 20.5783 29.3965 20.5199 29.3965C20.4614 29.3965 20.4168 29.4192 20.386 29.4655C20.3542 29.5107 20.3382 29.5721 20.3382 29.6518C20.3382 29.7315 20.3542 29.7939 20.386 29.8413C20.4179 29.8876 20.4625 29.9102 20.5199 29.9102C20.5772 29.9102 20.6219 29.8876 20.6527 29.8413C20.6845 29.7939 20.7005 29.7315 20.7005 29.6518ZM21.3517 29.9705C21.3517 30.0222 21.3357 30.0621 21.3028 30.089C21.2709 30.1159 21.2348 30.1289 21.1944 30.1289C21.1541 30.1289 21.1169 30.1159 21.084 30.089C21.0521 30.061 21.0362 30.0222 21.0362 29.9705C21.0362 29.9189 21.0521 29.8801 21.084 29.8532C21.1169 29.8252 21.1541 29.8122 21.1944 29.8122C21.2348 29.8122 21.2709 29.8262 21.3028 29.8532C21.3357 29.8801 21.3517 29.9189 21.3517 29.9705ZM22.3067 29.6518C22.3067 29.7229 22.2961 29.7885 22.2759 29.8478C22.2557 29.9059 22.226 29.9565 22.1877 29.9996C22.1495 30.0405 22.1027 30.0729 22.0485 30.0965C21.9954 30.1192 21.9349 30.131 21.868 30.131C21.801 30.131 21.7426 30.1192 21.6874 30.0965C21.6342 30.0739 21.5886 30.0416 21.5493 29.9996C21.511 29.9576 21.4802 29.907 21.459 29.8478C21.4377 29.7875 21.4271 29.7229 21.4271 29.6518C21.4271 29.5807 21.4377 29.5161 21.459 29.4569C21.4813 29.3987 21.5121 29.3481 21.5503 29.3072C21.5896 29.2662 21.6364 29.2339 21.6895 29.2102C21.7437 29.1876 21.8031 29.1758 21.8658 29.1758C21.9285 29.1758 21.9891 29.1876 22.0422 29.2102C22.0963 29.2329 22.1431 29.2652 22.1813 29.3072C22.2196 29.3481 22.2504 29.3987 22.2716 29.4569C22.2929 29.515 22.3035 29.5807 22.3035 29.6518H22.3067ZM22.0485 29.6518C22.0485 29.5721 22.0326 29.5107 22.0007 29.4655C21.9699 29.4192 21.9264 29.3965 21.868 29.3965C21.8095 29.3965 21.7649 29.4192 21.7341 29.4655C21.7022 29.5107 21.6863 29.5721 21.6863 29.6518C21.6863 29.7315 21.7022 29.7939 21.7341 29.8413C21.766 29.8876 21.8106 29.9102 21.868 29.9102C21.9253 29.9102 21.9699 29.8876 22.0007 29.8413C22.0326 29.7939 22.0485 29.7315 22.0485 29.6518ZM23.0418 29.4278C23.0195 29.4224 22.9929 29.4159 22.9621 29.4105C22.9313 29.4041 22.8984 29.3998 22.8633 29.3998C22.8474 29.3998 22.8283 29.4019 22.806 29.4052C22.7847 29.4073 22.7677 29.4105 22.7571 29.4138V30.1062H22.5043V29.2479C22.55 29.2318 22.6031 29.2167 22.6636 29.2027C22.7263 29.1876 22.7954 29.1801 22.8708 29.1801C22.8846 29.1801 22.9005 29.1812 22.9196 29.1833C22.9388 29.1844 22.9579 29.1865 22.977 29.1898C22.9961 29.1919 23.0153 29.1952 23.0344 29.2005C23.0535 29.2038 23.0705 29.2081 23.0832 29.2145L23.0407 29.4267L23.0418 29.4278ZM23.4189 29.6238C23.4189 29.767 23.4763 29.8392 23.591 29.8392C23.6165 29.8392 23.641 29.8359 23.6643 29.8284C23.6866 29.8219 23.7058 29.8133 23.7217 29.8047V29.3944C23.7089 29.3922 23.6941 29.3901 23.6771 29.389C23.6601 29.3869 23.6399 29.3858 23.6176 29.3858C23.5507 29.3858 23.5007 29.4084 23.4678 29.4525C23.4349 29.4978 23.4189 29.5538 23.4189 29.6227V29.6238ZM23.9745 29.9921C23.9745 30.1407 23.9373 30.2505 23.8619 30.3216C23.7886 30.3938 23.6739 30.4304 23.5188 30.4304C23.4646 30.4304 23.4104 30.425 23.3552 30.4153C23.301 30.4067 23.25 30.3938 23.2043 30.3776L23.249 30.1622C23.2883 30.1784 23.3297 30.1913 23.3733 30.1999C23.4179 30.2096 23.4678 30.2139 23.523 30.2139C23.5953 30.2139 23.6463 30.1978 23.676 30.1655C23.7068 30.1332 23.7217 30.0922 23.7217 30.0416V30.0093C23.6941 30.0222 23.6665 30.0319 23.6367 30.0384C23.608 30.0438 23.5772 30.047 23.5432 30.047C23.42 30.047 23.3255 30.0104 23.2596 29.9372C23.1937 29.8629 23.1608 29.7584 23.1608 29.6249C23.1608 29.5581 23.1714 29.4978 23.1916 29.4439C23.2118 29.389 23.2415 29.3416 23.2798 29.3029C23.3191 29.2641 23.3679 29.2339 23.4242 29.2135C23.4805 29.1919 23.5453 29.1812 23.6165 29.1812C23.6473 29.1812 23.6781 29.1833 23.71 29.1865C23.7429 29.1887 23.7748 29.1919 23.8067 29.1973C23.8385 29.2016 23.8683 29.2081 23.897 29.2145C23.9267 29.2199 23.9522 29.2264 23.9756 29.2339V29.9953L23.9745 29.9921ZM17.7918 32.0447C17.7791 32.0038 17.7653 31.9607 17.7494 31.9176C17.7345 31.8745 17.7196 31.8304 17.7047 31.7862H17.2458C17.2309 31.8293 17.2161 31.8735 17.2001 31.9176C17.1853 31.9607 17.1715 32.0038 17.1598 32.0447H16.8846C16.9292 31.9155 16.9707 31.797 17.01 31.6882C17.0493 31.5795 17.0886 31.4761 17.1258 31.3802C17.164 31.2833 17.2012 31.1929 17.2384 31.1067C17.2756 31.0195 17.3138 30.9344 17.3542 30.8515H17.607C17.6452 30.9344 17.6835 31.0195 17.7207 31.1067C17.7579 31.1929 17.795 31.2844 17.8333 31.3802C17.8715 31.4772 17.9108 31.5795 17.9501 31.6882C17.9894 31.797 18.0319 31.9165 18.0755 32.0447H17.7918ZM17.4742 31.1207C17.4689 31.1379 17.4604 31.1616 17.4487 31.1918C17.437 31.2219 17.4243 31.2564 17.4094 31.2952C17.3945 31.3339 17.3786 31.377 17.3605 31.4244C17.3435 31.4718 17.3255 31.5213 17.3074 31.573H17.6421C17.624 31.5213 17.6059 31.4718 17.5889 31.4244C17.5719 31.377 17.556 31.3339 17.5401 31.2952C17.5252 31.2564 17.5125 31.2219 17.5008 31.1918C17.4891 31.1616 17.4806 31.1379 17.4731 31.1207H17.4742ZM18.7107 31.5235C18.6884 31.6107 18.664 31.6979 18.6374 31.7841C18.612 31.8702 18.5854 31.9564 18.5578 32.0447H18.3602C18.34 31.9962 18.3177 31.9392 18.2943 31.8724C18.2709 31.8056 18.2455 31.7335 18.22 31.6549C18.1945 31.5752 18.169 31.4922 18.1413 31.405C18.1148 31.3167 18.0893 31.2273 18.0649 31.1379H18.3315C18.34 31.1789 18.3506 31.2241 18.3602 31.2736C18.3719 31.3221 18.3825 31.3716 18.3942 31.4233C18.4069 31.475 18.4186 31.5267 18.4314 31.5805C18.4452 31.6322 18.459 31.6818 18.4717 31.7302C18.4866 31.6796 18.5004 31.6279 18.5142 31.5752C18.5291 31.5224 18.5429 31.4707 18.5546 31.4201C18.5684 31.3684 18.5801 31.3189 18.5918 31.2715C18.6045 31.223 18.6151 31.1789 18.6236 31.1369H18.8074C18.8159 31.1778 18.8265 31.223 18.8382 31.2715C18.8499 31.3189 18.8616 31.3684 18.8743 31.4201C18.8871 31.4707 18.8998 31.5224 18.9137 31.5752C18.9275 31.6279 18.9413 31.6796 18.9561 31.7302C18.97 31.6818 18.9838 31.6322 18.9965 31.5805C19.0103 31.5278 19.0231 31.475 19.0337 31.4233C19.0464 31.3716 19.0571 31.3221 19.0677 31.2736C19.0794 31.2241 19.0889 31.1789 19.0985 31.1379H19.3619C19.3365 31.2273 19.311 31.3167 19.2833 31.405C19.2568 31.4922 19.2313 31.5752 19.2047 31.6549C19.1792 31.7335 19.1548 31.8056 19.1304 31.8724C19.107 31.9392 19.0847 31.9962 19.0645 32.0447H18.8669C18.8382 31.9575 18.8106 31.8702 18.784 31.7841C18.7564 31.6979 18.732 31.6107 18.7097 31.5235H18.7107ZM19.8251 31.8649C19.8506 31.8649 19.874 31.8649 19.8963 31.8627C19.9186 31.8616 19.9367 31.8595 19.9505 31.8573V31.6624C19.9398 31.6602 19.925 31.6581 19.9048 31.6559C19.8846 31.6538 19.8655 31.6527 19.8485 31.6527C19.8251 31.6527 19.8017 31.6549 19.7805 31.6581C19.7603 31.6602 19.7423 31.6656 19.7263 31.6732C19.7104 31.6818 19.6976 31.6925 19.6891 31.7055C19.6796 31.7195 19.6753 31.7367 19.6753 31.7572C19.6753 31.797 19.6881 31.8261 19.7146 31.8412C19.7423 31.8562 19.7784 31.8638 19.8251 31.8638V31.8649ZM19.8049 31.1132C19.8793 31.1132 19.942 31.1218 19.9919 31.139C20.0418 31.1562 20.0811 31.181 20.1109 31.2133C20.1417 31.2456 20.1629 31.2844 20.1757 31.3307C20.1884 31.377 20.1948 31.4276 20.1948 31.4836V32.0178C20.1587 32.0253 20.1077 32.035 20.044 32.0458C19.9792 32.0576 19.9016 32.063 19.8092 32.063C19.7518 32.063 19.6987 32.0576 19.6509 32.0479C19.6042 32.0372 19.5638 32.021 19.5298 31.9984C19.4958 31.9747 19.4703 31.9435 19.4512 31.9058C19.4331 31.8681 19.4236 31.8218 19.4236 31.7658C19.4236 31.7098 19.4342 31.6678 19.4544 31.6312C19.4756 31.5945 19.5043 31.5655 19.5394 31.5429C19.5744 31.5213 19.6148 31.5052 19.6605 31.4965C19.7061 31.4858 19.7529 31.4815 19.8017 31.4815C19.8347 31.4815 19.8634 31.4836 19.8889 31.4869C19.9154 31.489 19.9356 31.4922 19.9515 31.4976V31.4739C19.9515 31.4309 19.9388 31.3953 19.9122 31.3684C19.8867 31.3425 19.8411 31.3285 19.7763 31.3285C19.7338 31.3285 19.6902 31.3318 19.6488 31.3393C19.6073 31.3447 19.5702 31.3533 19.5404 31.3652L19.5085 31.1584C19.5234 31.1541 19.5415 31.1487 19.5627 31.1444C19.585 31.139 19.6095 31.1336 19.636 31.1304C19.6626 31.1261 19.6891 31.1218 19.7178 31.1196C19.7476 31.1164 19.7763 31.1142 19.806 31.1142L19.8049 31.1132ZM20.9618 31.3652C20.9395 31.3598 20.9129 31.3533 20.8821 31.3479C20.8513 31.3415 20.8184 31.3372 20.7833 31.3372C20.7674 31.3372 20.7483 31.3393 20.726 31.3425C20.7047 31.3447 20.6877 31.3479 20.6771 31.3512V32.0436H20.4243V31.1853C20.4699 31.1692 20.5231 31.1541 20.5836 31.1401C20.6463 31.125 20.7153 31.1175 20.7908 31.1175C20.8046 31.1175 20.8205 31.1185 20.8396 31.1207C20.8588 31.1218 20.8779 31.1239 20.897 31.1272C20.9161 31.1293 20.9352 31.1325 20.9544 31.1379C20.9735 31.1412 20.9905 31.1455 21.0032 31.1519L20.9607 31.3641L20.9618 31.3652ZM21.3389 31.5838C21.3389 31.6635 21.3559 31.727 21.392 31.7755C21.4271 31.8239 21.4791 31.8476 21.5482 31.8476C21.5705 31.8476 21.5917 31.8476 21.6109 31.8455C21.63 31.8433 21.6459 31.8412 21.6587 31.839V31.3716C21.6427 31.3609 21.6215 31.3522 21.596 31.3458C21.5705 31.3393 21.545 31.335 21.5195 31.335C21.3995 31.335 21.3389 31.4179 21.3389 31.5827V31.5838ZM21.9115 32.0145C21.8892 32.021 21.8626 32.0285 21.8329 32.035C21.8032 32.0404 21.7723 32.0458 21.7394 32.0501C21.7075 32.0544 21.6746 32.0587 21.6406 32.0609C21.6077 32.0641 21.5758 32.0662 21.545 32.0662C21.4717 32.0662 21.4058 32.0555 21.3474 32.0339C21.2901 32.0124 21.2412 31.9812 21.2008 31.9413C21.1615 31.9004 21.1307 31.8509 21.1095 31.7927C21.0893 31.7345 21.0787 31.6689 21.0787 31.5967C21.0787 31.5245 21.0882 31.4567 21.1063 31.3985C21.1243 31.3393 21.1509 31.2887 21.1849 31.2467C21.2189 31.2058 21.2603 31.1735 21.3092 31.1519C21.3591 31.1304 21.4154 31.1196 21.4791 31.1196C21.5142 31.1196 21.545 31.1229 21.5726 31.1304C21.6013 31.1369 21.6289 31.1465 21.6576 31.1595V30.7492L21.9104 30.7082V32.0156L21.9115 32.0145ZM22.4055 31.8595C22.4522 31.8595 22.4852 31.8552 22.5043 31.8455C22.5234 31.8358 22.533 31.8185 22.533 31.7916C22.533 31.7712 22.5202 31.7529 22.4958 31.7378C22.4703 31.7216 22.4331 31.7033 22.3821 31.6839C22.3428 31.6689 22.3067 31.6538 22.2738 31.6376C22.2419 31.6215 22.2153 31.6032 22.192 31.5805C22.1696 31.5579 22.1516 31.531 22.1388 31.4998C22.1261 31.4685 22.1197 31.4319 22.1197 31.3878C22.1197 31.3027 22.1505 31.2359 22.2132 31.1864C22.2759 31.1369 22.3609 31.1121 22.4703 31.1121C22.5245 31.1121 22.5765 31.1175 22.6264 31.1272C22.6764 31.1358 22.7157 31.1465 22.7454 31.1584L22.7008 31.3587C22.6711 31.3479 22.6392 31.3393 22.6041 31.3307C22.5701 31.3221 22.5319 31.3189 22.4883 31.3189C22.4087 31.3189 22.3694 31.3415 22.3694 31.3856C22.3694 31.3964 22.3715 31.405 22.3747 31.4136C22.3779 31.4212 22.3853 31.4298 22.3949 31.4373C22.4055 31.4438 22.4182 31.4524 22.4352 31.461C22.4533 31.4696 22.4756 31.4782 22.5032 31.489C22.5585 31.5095 22.6041 31.5299 22.6413 31.5515C22.6774 31.5709 22.7061 31.5924 22.7263 31.6172C22.7475 31.6398 22.7624 31.6656 22.7709 31.6947C22.7805 31.7238 22.7847 31.7572 22.7847 31.7949C22.7847 31.8842 22.7507 31.9521 22.6849 31.9984C22.619 32.0447 22.5255 32.0673 22.4044 32.0673C22.3247 32.0673 22.2589 32.0609 22.2058 32.0469C22.1537 32.0329 22.1176 32.021 22.0974 32.0124L22.1399 31.8035C22.1824 31.8207 22.227 31.8347 22.2727 31.8444C22.3184 31.853 22.363 31.8584 22.4065 31.8584L22.4055 31.8595Z" fill="#0B0D0E"/>
</g>
</g>
<defs>
<linearGradient id="paint0_linear_2558_27523" x1="6.4" y1="5.6" x2="28.8" y2="37.6" gradientUnits="userSpaceOnUse">
<stop stop-color="#AD7F29"/>
<stop offset="0.140625" stop-color="#FDE480"/>
<stop offset="0.296875" stop-color="#F8D44D"/>
<stop offset="0.489583" stop-color="#DBA632"/>
<stop offset="0.75" stop-color="#FCD64D"/>
<stop offset="0.869792" stop-color="#FDE585"/>
<stop offset="1" stop-color="#AC7E28"/>
</linearGradient>
<clipPath id="clip0_2558_27523">
<rect width="33.6" height="32.3077" fill="white" transform="translate(3.07617 3.07812)"/>
</clipPath>
</defs>
</svg>
