
<svg width="190" height="100" viewBox="0 0 190 100" fill="none" xmlns="http://www.w3.org/2000/svg">
<path d="M172.795 13H17.2054C7.70311 13 0 20.7459 0 30.301V69.699C0 79.2541 7.70311 87 17.2054 87H172.795C182.297 87 190 79.2541 190 69.699V30.301C190 20.7459 182.297 13 172.795 13Z" fill="#007BFF"/>
<path d="M38.2025 47.1587C38.2025 44.0356 35.6608 41.4888 32.5325 41.4888C32.4965 41.4888 32.4296 41.4991 32.3833 41.4991C29.3271 41.5762 26.8574 44.0819 26.8574 47.1536C26.8574 50.2252 29.3991 52.8287 32.5274 52.8287C35.6556 52.8287 38.1973 50.287 38.1973 47.1536L38.2025 47.1587ZM30.495 47.1587C30.495 46.0319 31.4057 45.1161 32.5325 45.1161C33.6593 45.1161 34.5751 46.0319 34.5751 47.1587C34.5751 48.2855 33.6645 49.2013 32.5325 49.2013C31.4006 49.2013 30.495 48.2907 30.495 47.1587Z" fill="white"/>
<path d="M54.3384 55.5917C52.7176 56.6876 50.7625 57.3256 48.6684 57.3256C45.3704 57.3256 42.4582 55.7255 40.6008 53.2764C38.7434 55.7203 35.8364 57.3256 32.5332 57.3256C30.434 57.3256 28.4789 56.6876 26.8633 55.5917V68.7581C29.2609 70.2862 31.921 71.4336 34.7662 72.0973L40.6008 77.9319L46.4406 72.087C49.2858 71.4182 51.9459 70.2811 54.3384 68.753V55.5865V55.5917ZM40.5957 61.0147C40.5957 61.0147 38.6611 59.1984 38.6611 58.262C38.6611 57.3256 39.6027 57.5674 40.5957 56.5796C41.5887 57.5674 42.5405 57.3307 42.5405 58.262C42.5405 59.1933 40.5957 61.0147 40.5957 61.0147Z" fill="white"/>
<path d="M54.3372 47.1585C54.3372 44.0663 51.8418 41.5503 48.7599 41.4937C48.7342 41.4937 48.6827 41.4834 48.6621 41.4834C45.5339 41.4834 42.9922 44.0302 42.9922 47.1533C42.9922 50.2765 45.539 52.8285 48.6621 52.8285C51.7852 52.8285 54.3321 50.2867 54.3321 47.1533L54.3372 47.1585ZM46.6247 47.1585C46.6247 46.0317 47.5354 45.1159 48.6621 45.1159C49.7889 45.1159 50.6996 46.0317 50.6996 47.1585C50.6996 48.2853 49.7889 49.2011 48.6621 49.2011C47.5354 49.2011 46.6247 48.2904 46.6247 47.1585Z" fill="white"/>
<path d="M40.5943 21.6646C26.4812 21.6646 15.0332 33.1074 15.0332 47.2257C15.0332 54.1922 17.8373 60.4899 22.3599 65.0897V41.5763C22.3599 40.2849 22.2364 39.8116 21.7991 39.3794C21.5984 39.2302 21.3978 39.0707 21.1919 38.906C21.1919 38.906 21.1851 38.8974 21.1714 38.8803C21.1096 38.8237 21.0427 38.7825 20.981 38.7259C20.8987 38.6488 20.8627 38.5561 20.7958 38.4687C20.698 38.3503 20.5951 38.2423 20.5282 38.1085C20.4562 37.9799 20.4202 37.8513 20.379 37.7175C20.3379 37.5786 20.2915 37.4448 20.2761 37.2904C20.2658 37.1515 20.2761 37.0177 20.2915 36.8788C20.3018 36.7348 20.3121 36.5907 20.3533 36.4466C20.3944 36.3077 20.4613 36.1894 20.5334 36.0505C20.5848 35.9527 20.6054 35.8447 20.6671 35.7572C20.6929 35.716 20.7289 35.7057 20.7649 35.6697C20.7906 35.6337 20.7958 35.5925 20.8266 35.5617C20.8987 35.4793 21.0016 35.4382 21.0839 35.3713C21.1971 35.2735 21.3103 35.1706 21.4492 35.0986C21.5778 35.0317 21.7065 35.0008 21.8454 34.9494C21.9843 34.9031 22.1181 34.8619 22.257 34.8516C22.4011 34.8311 22.5348 34.8516 22.6789 34.8619C22.823 34.8722 22.9567 34.8825 23.1059 34.9237C23.25 34.9648 23.3735 35.0369 23.5124 35.1089C23.6102 35.1552 23.7131 35.1706 23.8057 35.2427C23.924 35.3301 24.0269 35.4227 24.1401 35.4999C26.5943 37.6043 29.738 37.2647 31.4308 37.0795C31.899 37.028 32.2797 36.992 32.5319 36.992C35.8299 36.992 38.7369 38.5973 40.5943 41.0464C42.4517 38.5973 45.3638 36.992 48.6619 36.992C48.9191 36.992 49.2999 37.028 49.7681 37.0795C51.466 37.2699 54.6045 37.6043 57.0639 35.5051C57.1771 35.4176 57.28 35.325 57.3983 35.2375C57.491 35.1758 57.599 35.1603 57.6968 35.1037C57.8305 35.0317 57.954 34.9597 58.0929 34.9185C58.237 34.8722 58.3759 34.8671 58.5251 34.8568C58.6641 34.8465 58.803 34.8259 58.947 34.8465C59.086 34.8568 59.2197 34.9031 59.3535 34.9443C59.4924 34.9854 59.6313 35.0214 59.7651 35.0935C59.8989 35.1603 60.0069 35.2581 60.1253 35.3559C60.2076 35.4227 60.3105 35.4639 60.3825 35.5514C60.4134 35.5822 60.4185 35.6234 60.4443 35.6594C60.4751 35.6954 60.5112 35.7057 60.542 35.7469C60.6038 35.8344 60.6244 35.9424 60.6758 36.0402C60.7478 36.1791 60.8199 36.2974 60.861 36.4363C60.9022 36.5804 60.9073 36.7245 60.9228 36.8685C60.9331 37.0126 60.9485 37.1412 60.9331 37.2801C60.9176 37.4294 60.8713 37.5631 60.825 37.7072C60.7839 37.841 60.7478 37.9747 60.6758 38.0982C60.6089 38.232 60.506 38.34 60.4083 38.4584C60.3414 38.5407 60.3002 38.6385 60.2179 38.7156C60.1561 38.7722 60.0893 38.8134 60.0275 38.8649C60.0275 38.8649 60.0121 38.8803 60.0018 38.8906C59.796 39.0552 59.6005 39.2147 59.3998 39.3639C58.9573 39.7961 58.8338 40.2695 58.8338 41.5661V65.0742C63.3616 60.4693 66.1605 54.1717 66.1605 47.2051C66.1605 33.0869 54.7177 21.644 40.5994 21.644H40.5891L40.5943 21.6646Z" fill="white"/>
<path d="M89.0988 50.7059L91.0231 54.6008C91.0694 54.6934 91.1517 54.7552 91.2546 54.7654L95.5559 55.388C95.8081 55.424 95.9058 55.7327 95.7257 55.9077L92.6129 58.9382C92.5409 59.0102 92.51 59.108 92.5255 59.2109L93.2612 63.4916C93.3024 63.7437 93.04 63.9341 92.8187 63.8158L88.9753 61.7937C88.8878 61.7474 88.7798 61.7474 88.6923 61.7937L84.8489 63.8158C84.6225 63.9341 84.3653 63.7437 84.4064 63.4916L85.1422 59.2109C85.1576 59.1131 85.1267 59.0102 85.0547 58.9382L81.9419 55.9077C81.7618 55.7327 81.8596 55.424 82.1117 55.388L86.413 54.7654C86.5108 54.75 86.5982 54.6883 86.6445 54.6008L88.5688 50.7059C88.682 50.4795 89.0062 50.4795 89.1194 50.7059H89.0988Z" fill="white"/>
<path d="M108.81 50.7059L110.734 54.6008C110.78 54.6934 110.863 54.7552 110.966 54.7654L115.267 55.388C115.519 55.424 115.617 55.7327 115.437 55.9077L112.324 58.9382C112.252 59.0102 112.221 59.108 112.236 59.2109L112.972 63.4916C113.013 63.7437 112.751 63.9341 112.53 63.8158L108.686 61.7937C108.599 61.7474 108.491 61.7474 108.403 61.7937L104.56 63.8158C104.333 63.9341 104.076 63.7437 104.117 63.4916L104.853 59.2109C104.869 59.1131 104.838 59.0102 104.766 58.9382L101.653 55.9077C101.473 55.7327 101.57 55.424 101.823 55.388L106.124 54.7654C106.222 54.75 106.309 54.6883 106.355 54.6008L108.28 50.7059C108.393 50.4795 108.717 50.4795 108.83 50.7059H108.81Z" fill="white"/>
<path d="M128.521 50.7059L130.445 54.6008C130.491 54.6934 130.574 54.7552 130.676 54.7654L134.978 55.388C135.23 55.424 135.328 55.7327 135.148 55.9077L132.035 58.9382C131.963 59.0102 131.932 59.108 131.947 59.2109L132.683 63.4916C132.724 63.7437 132.462 63.9341 132.241 63.8158L128.397 61.7937C128.31 61.7474 128.202 61.7474 128.114 61.7937L124.271 63.8158C124.044 63.9341 123.787 63.7437 123.828 63.4916L124.564 59.2109C124.579 59.1131 124.549 59.0102 124.477 58.9382L121.364 55.9077C121.184 55.7327 121.281 55.424 121.534 55.388L125.835 54.7654C125.933 54.75 126.02 54.6883 126.066 54.6008L127.991 50.7059C128.104 50.4795 128.428 50.4795 128.541 50.7059H128.521Z" fill="white"/>
<path d="M148.226 50.7059L150.15 54.6008C150.196 54.6934 150.279 54.7552 150.382 54.7654L154.683 55.388C154.935 55.424 155.033 55.7327 154.853 55.9077L151.74 58.9382C151.668 59.0102 151.637 59.108 151.652 59.2109L152.388 63.4916C152.429 63.7437 152.167 63.9341 151.946 63.8158L148.102 61.7937C148.015 61.7474 147.907 61.7474 147.819 61.7937L143.976 63.8158C143.749 63.9341 143.492 63.7437 143.533 63.4916L144.269 59.2109C144.285 59.1131 144.254 59.0102 144.182 58.9382L141.069 55.9077C140.889 55.7327 140.987 55.424 141.239 55.388L145.54 54.7654C145.638 54.75 145.725 54.6883 145.772 54.6008L147.696 50.7059C147.809 50.4795 148.133 50.4795 148.246 50.7059H148.226Z" fill="white"/>
<path d="M167.937 50.7059L169.861 54.6008C169.907 54.6934 169.99 54.7552 170.092 54.7654L174.394 55.388C174.646 55.424 174.744 55.7327 174.564 55.9077L171.451 58.9382C171.379 59.0102 171.348 59.108 171.363 59.2109L172.099 63.4916C172.14 63.7437 171.878 63.9341 171.657 63.8158L167.813 61.7937C167.726 61.7474 167.618 61.7474 167.53 61.7937L163.687 63.8158C163.46 63.9341 163.203 63.7437 163.244 63.4916L163.98 59.2109C163.995 59.1131 163.965 59.0102 163.893 58.9382L160.78 55.9077C160.6 55.7327 160.697 55.424 160.95 55.388L165.251 54.7654C165.349 54.75 165.436 54.6883 165.482 54.6008L167.407 50.7059C167.52 50.4795 167.844 50.4795 167.957 50.7059H167.937Z" fill="white"/>
<path d="M81.5938 45.2058H83.6231V41.6444H84.2413C85.0745 41.6579 85.4642 41.967 85.7061 43.0959C85.9749 44.2113 86.1899 44.9505 86.3378 45.2058H88.4343C88.2596 44.8564 87.9773 43.6737 87.6951 42.6524C87.4666 41.8191 87.1172 41.2144 86.4856 40.959V40.9187C87.2651 40.6365 88.0848 39.8436 88.0848 38.6878C88.0848 37.8546 87.7892 37.223 87.2516 36.7929C86.6065 36.2822 85.6658 36.0806 84.3219 36.0806C83.2333 36.0806 82.2523 36.1613 81.5938 36.2688V45.2058ZM83.6231 37.6665C83.7709 37.6396 84.0531 37.5993 84.5504 37.5993C85.4911 37.6127 86.0555 38.0293 86.0555 38.8625C86.0555 39.6554 85.4508 40.1661 84.4294 40.1661H83.6231V37.6665Z" fill="white"/>
<path d="M94.9492 39.7092H91.6163V37.8277H95.1508V36.1478H89.5601V45.2058H95.3389V43.5259H91.6163V41.3757H94.9492V39.7092Z" fill="white"/>
<path d="M103.082 43.3512C102.679 43.5125 101.994 43.6469 101.376 43.6469C99.5478 43.6469 98.4727 42.5045 98.4727 40.6903C98.4727 38.6744 99.7359 37.6933 101.362 37.6933C102.088 37.6933 102.666 37.8546 103.082 38.0293L103.499 36.4032C103.136 36.215 102.33 36 101.268 36C98.5264 36 96.3224 37.7202 96.3224 40.8112C96.3224 43.3915 97.9351 45.3402 101.066 45.3402C102.168 45.3402 103.015 45.1386 103.391 44.9505L103.082 43.3512Z" fill="white"/>
<path d="M108.316 36C105.642 36 103.908 38.0293 103.908 40.744C103.908 43.3243 105.481 45.3536 108.168 45.3536C110.816 45.3536 112.617 43.5528 112.617 40.5827C112.617 38.0831 111.098 36 108.316 36ZM108.262 37.6261C109.674 37.6261 110.453 39.0238 110.453 40.6499C110.453 42.4105 109.66 43.7275 108.276 43.7275C106.905 43.7275 106.072 42.4777 106.072 40.7037C106.072 38.9432 106.878 37.6261 108.262 37.6261Z" fill="white"/>
<path d="M121.753 45.2058H123.755L123.258 36.1478H120.583L119.616 39.1582C119.32 40.1661 119.011 41.3622 118.756 42.4105H118.715C118.514 41.3488 118.232 40.2199 117.949 39.1716L117.062 36.1478H114.334L113.756 45.2058H115.651L115.812 41.7654C115.88 40.6365 115.92 39.2388 115.974 38.0159H116.001C116.216 39.1985 116.525 40.4887 116.82 41.5504L117.788 45.058H119.387L120.489 41.5235C120.839 40.4618 121.215 39.1716 121.497 38.0159H121.538C121.538 39.3329 121.578 40.6499 121.618 41.7385L121.753 45.2058Z" fill="white"/>
<path d="M130.712 39.7092H127.38V37.8277H130.914V36.1478H125.323V45.2058H131.102V43.5259H127.38V41.3757H130.712V39.7092Z" fill="white"/>
<path d="M134.384 45.2058V42.4777C134.384 40.9994 134.357 39.7226 134.303 38.5266L134.343 38.5131C134.787 39.5748 135.378 40.744 135.916 41.7116L137.851 45.2058H140.001V36.1478H138.12V38.7953C138.12 40.1527 138.16 41.3757 138.295 42.5717H138.254C137.851 41.5504 137.314 40.4215 136.776 39.4673L134.894 36.1478H132.502V45.2058H134.384Z" fill="white"/>
<path d="M141.781 45.1655C142.292 45.2327 143.044 45.2999 144.106 45.2999C145.88 45.2999 147.331 44.9236 148.286 44.1307C149.159 43.3915 149.791 42.1954 149.791 40.4618C149.791 38.8625 149.199 37.7471 148.259 37.0483C147.385 36.3897 146.27 36.0806 144.55 36.0806C143.515 36.0806 142.534 36.1478 141.781 36.2688V45.1655ZM143.837 37.7336C144.012 37.6933 144.308 37.653 144.765 37.653C146.525 37.653 147.627 38.6475 147.614 40.529C147.614 42.6927 146.404 43.7141 144.55 43.7006C144.294 43.7006 144.012 43.7006 143.837 43.6603V37.7336Z" fill="white"/>
<path d="M155.632 42.8808L156.331 45.2058H158.535L155.726 36.1478H153.039L150.27 45.2058H152.393L153.039 42.8808H155.632ZM153.334 41.3488L153.872 39.427C154.02 38.9029 154.154 38.2175 154.288 37.6799H154.315C154.45 38.2175 154.611 38.8894 154.772 39.427L155.337 41.3488H153.334Z" fill="white"/>
<path d="M159.748 45.1655C160.259 45.2327 161.011 45.2999 162.073 45.2999C163.847 45.2999 165.298 44.9236 166.253 44.1307C167.126 43.3915 167.758 42.1954 167.758 40.4618C167.758 38.8625 167.166 37.7471 166.226 37.0483C165.352 36.3897 164.237 36.0806 162.517 36.0806C161.482 36.0806 160.501 36.1478 159.748 36.2688V45.1655ZM161.804 37.7336C161.979 37.6933 162.275 37.653 162.732 37.653C164.492 37.653 165.594 38.6475 165.581 40.529C165.581 42.6927 164.371 43.7141 162.517 43.7006C162.261 43.7006 161.979 43.7006 161.804 43.6603V37.7336Z" fill="white"/>
<path d="M173.599 42.8808L174.298 45.2058H176.502L173.693 36.1478H171.006L168.237 45.2058H170.36L171.006 42.8808H173.599ZM171.301 41.3488L171.839 39.427C171.987 38.9029 172.121 38.2175 172.255 37.6799H172.282C172.417 38.2175 172.578 38.8894 172.739 39.427L173.304 41.3488H171.301Z" fill="white"/>
</svg>
