
<svg width="190" height="100" viewBox="0 0 190 100" fill="none" xmlns="http://www.w3.org/2000/svg">
<path d="M32.3151 75.9274L32.0861 77.7213C32.0621 77.9137 32.0765 78.109 32.1284 78.2959C32.1802 78.4828 32.2686 78.6576 32.3884 78.8101C32.5081 78.9627 32.6569 79.0901 32.8261 79.1848C32.9953 79.2796 33.1816 79.34 33.3742 79.3624H91.6834C91.8789 79.365 92.0729 79.329 92.2545 79.2565C92.4361 79.184 92.6016 79.0764 92.7415 78.94C92.8815 78.8035 92.9933 78.6409 93.0704 78.4612C93.1475 78.2816 93.1885 78.0885 93.191 77.893C93.196 77.8327 93.196 77.7721 93.191 77.7117L92.9524 75.9179C92.8856 75.2466 93.0868 74.576 93.5122 74.0524C93.9375 73.5287 94.5526 73.1944 95.2234 73.1222C95.5523 73.0864 95.885 73.1158 96.2026 73.2087C96.5202 73.3015 96.8164 73.456 97.0742 73.6634C97.332 73.8707 97.5465 74.1268 97.7054 74.4171C97.8642 74.7073 97.9643 75.026 98 75.3549L98.229 77.1011C98.6774 80.9845 96.4733 84.4004 92.504 84.4004H32.7349C28.8038 84.4004 26.6092 80.9845 27.0576 77.1011L27.2866 75.3549C27.32 75.0277 27.4176 74.7103 27.5739 74.4208C27.7301 74.1314 27.942 73.8756 28.1972 73.6682C28.4525 73.4608 28.7462 73.3058 29.0615 73.2121C29.3768 73.1184 29.7075 73.0878 30.0346 73.1222C30.7062 73.1967 31.3213 73.5331 31.7464 74.0583C32.1716 74.5834 32.3725 75.2551 32.3056 75.9274" fill="#FF0000"/>
<path d="M86.0348 62.4445C87.2959 62.5122 88.5323 62.0771 89.4731 61.2347C90.4139 60.3923 90.9823 59.2112 91.0537 57.9504C91.0583 57.8677 91.0583 57.7849 91.0537 57.7023C90.9965 54.9256 88.4679 53.1318 85.6531 53.1223H79.9568C79.3241 53.1223 78.7174 52.8709 78.27 52.4236C77.8227 51.9762 77.5714 51.3695 77.5714 50.7368C77.5714 50.1042 77.8227 49.4975 78.27 49.0501C78.7174 48.6028 79.3241 48.3514 79.9568 48.3514H83.7734C86.3401 48.2465 88.3153 46.6912 88.4393 44.2771C88.5634 41.6723 86.3306 39.7258 83.6112 39.7258H74.3749V62.4063H86.0348V62.4445ZM93.0289 44.2771C93.033 45.2724 92.8385 46.2585 92.4568 47.1777C92.075 48.0968 91.5137 48.9305 90.8057 49.63L90.6625 49.7922L90.8534 49.9067C92.2488 50.6825 93.4208 51.8047 94.2564 53.1651C95.092 54.5255 95.5631 56.0783 95.6242 57.6736C95.6574 60.1929 94.6929 62.6231 92.9411 64.4339C91.1893 66.2447 88.7924 67.2892 86.2734 67.3394H71.9608C71.2986 67.3293 70.6672 67.0579 70.2043 66.5842C69.7414 66.1106 69.4844 65.4731 69.4896 64.8108V37.5884C69.4844 37.2545 69.5463 36.923 69.6714 36.6133C69.7965 36.3037 69.9824 36.0223 70.2181 35.7857C70.4538 35.5491 70.7345 35.3622 71.0437 35.2359C71.3528 35.1096 71.6842 35.0465 72.0181 35.0503H83.6112C86.0402 34.9836 88.3963 35.8837 90.1621 37.5529C91.9279 39.222 92.959 41.5239 93.0289 43.9527V44.2676" fill="white"/>
<path d="M47.7628 58.0276L47.8296 58.2184L47.8964 58.0276C48.5452 56.2338 49.3372 54.2109 50.1673 52.0831C50.9974 49.9553 51.8848 47.6272 52.734 45.5471C53.5832 43.467 54.4134 41.5587 55.1958 39.9175C55.7109 38.7063 56.3504 37.5519 57.1041 36.4729C57.4714 36.0169 57.9387 35.6515 58.4698 35.4049C59.0009 35.1584 59.5816 35.0374 60.167 35.0512H60.749C61.4107 35.0237 62.0605 35.2335 62.581 35.6428C62.9807 35.9742 63.2398 36.4447 63.3062 36.9596L66.9416 65.1075C66.9564 65.4191 66.9092 65.7305 66.8027 66.0237C66.6962 66.3169 66.5326 66.586 66.3214 66.8155C65.8292 67.2275 65.1965 67.4327 64.5562 67.388C63.9024 67.4246 63.2557 67.2361 62.7242 66.8536C62.4893 66.6933 62.2918 66.4841 62.1453 66.2403C61.9987 65.9966 61.9065 65.7241 61.875 65.4415C61.7509 64.4873 61.646 63.4663 61.5315 62.3213C61.417 61.1763 60.8063 56.2815 60.6441 55.0315C60.4819 53.7815 59.48 45.8142 59.1269 42.9231V42.675L57.9629 45.1177C57.5717 45.9574 57.1423 46.9592 56.6747 48.1329C56.2072 49.3065 55.7206 50.5469 55.2721 51.8637C54.8237 53.1804 52.5146 59.5543 52.5146 59.5543C52.3047 60.1363 51.9039 61.3099 51.5604 62.4168C51.2169 63.5236 50.8639 64.4682 50.778 64.6495C50.3843 65.4199 49.7008 66.0024 48.8777 66.269C48.0547 66.5356 47.1594 66.4645 46.3888 66.0712C45.7616 65.7581 45.2502 65.2535 44.9289 64.6304C44.8335 64.4491 44.5091 63.4759 44.137 62.3977C43.7649 61.3195 43.4023 60.1554 43.1828 59.5352C43.1828 59.5352 40.9405 53.1041 40.4348 51.8446C39.9291 50.5851 39.4806 49.297 39.0322 48.1138C38.5837 46.9306 38.1257 45.9383 37.7441 45.0986L36.5704 42.6846V42.9327C36.2174 45.7952 35.206 53.772 35.0438 55.041C34.8816 56.3101 34.29 61.1573 34.1564 62.2927C34.0228 63.4282 33.9178 64.4778 33.8033 65.4128C33.7718 65.6955 33.6796 65.968 33.533 66.2117C33.3865 66.4554 33.189 66.6646 32.9541 66.825C32.4252 67.2053 31.7823 67.3938 31.1317 67.3593C30.4974 67.402 29.8714 67.1968 29.3856 66.7868C29.1743 66.5574 29.0107 66.2882 28.9042 65.995C28.7978 65.7019 28.7506 65.3905 28.7653 65.0789L32.353 36.9596C32.4363 36.4642 32.6975 36.0164 33.0877 35.7001C33.599 35.2679 34.2504 35.0371 34.9197 35.0512H35.5018C36.0816 35.0369 36.6571 35.1549 37.1845 35.3963C37.712 35.6377 38.1774 35.9961 38.5456 36.4443C39.3028 37.5211 39.9425 38.6759 40.4539 39.8889C41.2363 41.53 42.0569 43.4066 42.9156 45.5185C43.7744 47.6303 44.6331 49.809 45.4919 52.0545C46.322 54.2109 47.1044 56.2051 47.7533 57.999" fill="white"/>
<path d="M40.6447 18.0286H84.7845C88.9446 18.0286 91.0152 21.1488 91.4636 25.2708L91.6545 26.5875C91.7296 27.2691 91.532 27.9528 91.1047 28.4891C90.6774 29.0255 90.0552 29.3709 89.374 29.45C88.7055 29.503 88.0431 29.2903 87.5305 28.858C87.0178 28.4257 86.6962 27.8088 86.6355 27.1409L86.4447 25.8719C86.2634 24.307 85.605 23.0953 84.0116 23.0953H41.4271C39.8336 23.0953 39.1753 24.307 38.9844 25.8719L38.8127 27.1218C38.7521 27.7907 38.4289 28.4083 37.9138 28.8394C37.3987 29.2704 36.7338 29.4797 36.0647 29.4214C35.7269 29.3834 35.3999 29.2792 35.1024 29.1148C34.8049 28.9503 34.5427 28.7288 34.3309 28.463C34.1191 28.1971 33.9618 27.8921 33.868 27.5654C33.7742 27.2386 33.7457 26.8966 33.7842 26.5589L33.9655 25.2421C34.4617 21.1297 36.5227 18 40.6447 18" fill="#FF0000"/>
<path d="M120.031 47.7027C119.726 48.8763 119.411 50.1358 119.077 51.5193C118.743 52.9029 118.409 54.1433 118.123 55.336C117.836 56.5287 117.502 57.6165 117.168 58.542C116.99 59.2004 116.747 59.8396 116.443 60.4504C116.256 60.7532 115.988 60.9976 115.67 61.1561C115.351 61.3146 114.994 61.3808 114.64 61.3473C114.317 61.3392 113.997 61.2911 113.686 61.2041C113.478 61.1414 113.286 61.036 113.122 60.8947C112.958 60.7534 112.825 60.5793 112.732 60.3836C112.43 59.7456 112.187 59.0813 112.006 58.3989C111.72 57.4447 111.415 56.2806 111.052 54.9925C110.69 53.7044 110.413 52.3495 110.098 50.9087C109.783 49.4679 109.478 48.1321 109.23 46.9012C108.982 45.6703 108.753 44.6112 108.581 43.7524C108.409 42.8937 108.314 42.3689 108.285 42.1876C108.28 42.1145 108.28 42.0412 108.285 41.9681V41.8441C108.28 41.6735 108.315 41.5041 108.388 41.3499C108.461 41.1956 108.57 41.0608 108.705 40.9567C108.997 40.7255 109.363 40.607 109.736 40.6228C110.071 40.6081 110.404 40.6945 110.69 40.8708C110.965 41.0765 111.15 41.3809 111.205 41.72C111.205 41.72 111.262 42.0731 111.377 42.6742C111.491 43.2753 111.653 43.991 111.835 44.8783C112.016 45.7657 112.226 46.7867 112.445 47.9031C112.665 49.0194 112.903 50.1549 113.161 51.2999C113.419 52.4449 113.657 53.5422 113.905 54.6204C114.153 55.6986 114.373 56.6146 114.592 57.3875C114.802 56.6623 115.041 55.8322 115.298 54.8971C115.556 53.962 115.823 52.9888 116.081 52.0346C116.338 51.0804 116.577 50.0404 116.815 49.0481C117.054 48.0557 117.273 47.1397 117.483 46.2619C117.693 45.3841 117.855 44.6493 118.008 43.9814C118.161 43.3135 118.275 42.8269 118.361 42.5025C118.458 42.1273 118.672 41.793 118.972 41.5483C119.263 41.2837 119.638 41.1285 120.031 41.1094C120.451 41.09 120.864 41.2221 121.195 41.4815C121.492 41.7227 121.694 42.0604 121.768 42.4357C122.025 43.4757 122.273 44.6589 122.55 45.9566C122.827 47.2542 123.122 48.5614 123.418 49.8877C123.714 51.214 124.039 52.5212 124.372 53.7998C124.706 55.0784 125.012 56.2043 125.327 57.1871C125.537 56.4142 125.775 55.4982 126.023 54.4296C126.271 53.3609 126.51 52.2541 126.767 51.1091C127.025 49.9641 127.283 48.8572 127.512 47.7408C127.741 46.6245 127.97 45.6226 128.16 44.7352C128.351 43.8478 128.514 43.1227 128.619 42.5693C128.723 42.0158 128.8 41.7105 128.8 41.6914C128.866 41.3591 129.049 41.0613 129.315 40.8518C129.6 40.6732 129.933 40.5866 130.269 40.6037C130.644 40.5906 131.012 40.7087 131.309 40.9376C131.443 41.0433 131.55 41.1783 131.623 41.3322C131.696 41.4861 131.732 41.6548 131.729 41.825V41.949C131.734 42.0253 131.734 42.1018 131.729 42.178C131.729 42.3498 131.605 42.8651 131.424 43.7429C131.242 44.6207 131.023 45.6512 130.765 46.8821C130.508 48.113 130.212 49.4488 129.897 50.8705C129.582 52.2922 129.248 53.6471 128.943 54.9353C128.638 56.2234 128.332 57.3589 127.989 58.3321C127.81 59.0088 127.567 59.667 127.264 60.2977C127.071 60.6984 126.728 61.0069 126.309 61.1564C126.002 61.2605 125.68 61.3183 125.355 61.3282C125.225 61.3376 125.094 61.3376 124.964 61.3282C124.777 61.3016 124.592 61.2601 124.411 61.2041C124.206 61.1312 124.013 61.0283 123.838 60.8988C123.638 60.7513 123.48 60.5539 123.38 60.3263C123.101 59.67 122.872 58.9938 122.693 58.3035C122.416 57.3493 122.13 56.2997 121.815 55.1166C121.5 53.9334 121.205 52.6739 120.861 51.3762C120.518 50.0786 120.279 48.8668 120.021 47.7408" fill="white"/>
<path d="M136.911 55.3727C136.587 56.4032 136.3 57.3574 136.062 58.2352C135.823 59.113 135.575 59.8287 135.365 60.3916C135.315 60.7712 135.115 61.1151 134.811 61.3478C134.507 61.5804 134.123 61.6826 133.743 61.632C133.364 61.5814 133.02 61.3821 132.787 61.0779C132.555 60.7737 132.452 60.3895 132.503 60.0099C132.501 59.8672 132.524 59.7252 132.57 59.5901L132.97 58.2638C133.199 57.5196 133.495 56.594 133.858 55.4681C134.22 54.3422 134.631 53.1399 135.07 51.8136C135.509 50.4874 135.967 49.1706 136.434 47.8729C136.902 46.5753 137.388 45.3635 137.827 44.2471C138.194 43.3091 138.624 42.3973 139.115 41.5182C139.254 41.1994 139.501 40.9395 139.812 40.7835C140.189 40.6401 140.592 40.5751 140.995 40.5926C141.41 40.584 141.822 40.6587 142.207 40.8121C142.367 40.8888 142.51 40.9967 142.628 41.1294C142.746 41.2621 142.836 41.417 142.894 41.585C143.199 42.2243 143.562 43.0926 143.972 44.1708C144.382 45.249 144.84 46.4226 145.298 47.6821C145.756 48.9416 146.252 50.2202 146.672 51.4988C147.092 52.7774 147.541 54.0178 147.913 55.1437C148.285 56.2696 148.609 57.2333 148.867 58.0062C149.125 58.7791 149.306 59.3134 149.363 59.5519C149.409 59.6871 149.432 59.829 149.43 59.9718C149.439 60.1499 149.409 60.3279 149.342 60.4929C149.274 60.658 149.171 60.8059 149.039 60.9259C148.888 61.0606 148.711 61.163 148.519 61.227C148.327 61.291 148.124 61.3152 147.922 61.2981C147.625 61.326 147.329 61.2408 147.092 61.0595C146.892 60.8716 146.744 60.6349 146.663 60.3725C146.443 59.8096 146.195 59.0939 145.899 58.2161C145.604 57.3383 145.298 56.3841 144.945 55.3536H136.883L136.911 55.3727ZM144.039 52.5579C143.581 51.1648 143.161 49.8862 142.751 48.7412C142.34 47.5962 141.978 46.4989 141.52 45.4112C141.415 45.1726 141.3 44.9055 141.186 44.5811C141.071 44.2566 140.995 44.0944 140.976 44.0372C140.886 44.2003 140.816 44.3732 140.766 44.5524C140.642 44.8959 140.537 45.1726 140.423 45.4112C139.993 46.4608 139.583 47.5676 139.182 48.7412C138.781 49.9149 138.361 51.1839 137.913 52.5579H144.039Z" fill="white"/>
<path d="M155.001 53.225C154.889 53.1131 154.787 52.9918 154.696 52.8625L154.381 52.4235C154.075 51.9942 153.76 51.4694 153.426 50.8587C153.093 50.248 152.711 49.5992 152.358 48.9504C152.005 48.3015 151.661 47.5668 151.337 46.8703C151.012 46.1738 150.688 45.5249 150.43 44.962C150.173 44.399 149.925 43.836 149.734 43.3971C149.59 43.0892 149.472 42.7701 149.381 42.443C149.344 42.3634 149.315 42.2803 149.295 42.1949C149.295 42.1949 149.295 42.0708 149.295 41.9563C149.294 41.7785 149.329 41.6022 149.398 41.4382C149.467 41.2742 149.568 41.1259 149.696 41.0022C149.846 40.8651 150.022 40.7597 150.214 40.6925C150.406 40.6253 150.609 40.5975 150.812 40.611C150.985 40.5914 151.16 40.6104 151.325 40.6665C151.49 40.7226 151.641 40.8144 151.766 40.9354C151.934 41.1233 152.066 41.3398 152.157 41.5747L152.472 42.2807C152.635 42.6433 152.835 43.0918 153.064 43.6261C153.293 44.1605 153.57 44.752 153.875 45.4009C154.18 46.0497 154.476 46.6699 154.829 47.3092L155.736 49.0935C155.981 49.5737 156.255 50.0388 156.556 50.4866C157.043 49.7269 157.486 48.94 157.882 48.1298C158.35 47.1756 158.837 46.2692 159.228 45.3436C159.619 44.4181 160.029 43.607 160.354 42.9105L160.917 41.5842C161.011 41.3489 161.147 41.1324 161.317 40.9449C161.439 40.8192 161.59 40.7242 161.755 40.6678C161.921 40.6114 162.098 40.5952 162.272 40.6205C162.475 40.6059 162.678 40.6332 162.87 40.7004C163.062 40.7677 163.239 40.8737 163.388 41.0117C163.519 41.1329 163.623 41.2808 163.692 41.4454C163.761 41.61 163.794 41.7874 163.789 41.9659C163.799 42.0451 163.799 42.1252 163.789 42.2044L163.712 42.4525L163.34 43.4067C163.159 43.8551 162.93 44.3608 162.653 44.9715C162.377 45.5822 162.09 46.2215 161.766 46.8798C161.442 47.5382 161.079 48.2634 160.726 48.9599C160.373 49.6565 160.02 50.2958 159.667 50.8683C159.314 51.4408 158.98 52.0228 158.713 52.4426C158.53 52.7097 158.322 52.9589 158.092 53.1869V59.8661C158.102 60.0606 158.071 60.255 158.002 60.4372C157.933 60.6194 157.827 60.7855 157.692 60.9252C157.418 61.195 157.05 61.3463 156.666 61.3463C156.282 61.3463 155.913 61.195 155.64 60.9252C155.494 60.7831 155.378 60.6123 155.301 60.4234C155.224 60.2346 155.187 60.0318 155.192 59.8279V53.1487" fill="white"/>
</svg>
