
<svg width="190" height="100" viewBox="0 0 190 100" fill="none" xmlns="http://www.w3.org/2000/svg">
<path fill-rule="evenodd" clip-rule="evenodd" d="M135.135 34.3713C139.322 34.3713 142.717 30.988 142.717 26.8159C142.717 22.6414 139.322 19.2549 135.135 19.2549C130.952 19.2549 127.559 22.6414 127.559 26.8159C127.559 30.988 130.952 34.3713 135.135 34.3713ZM77.0663 38.4515C76.7242 39.3085 74.2618 46.2449 68.3064 53.4339V22.695L52.4386 25.8225V81.54H68.3064V64.3173C72.9022 71.1911 75.1716 81.54 75.1716 81.54H94.1781C92.298 73.7459 84.0741 59.3744 84.0741 59.3744C91.4549 50.0425 94.6969 40.0989 95.2126 38.4515H77.0663ZM118.782 37.8699C104.57 38.3248 97.3549 44.6836 97.3549 57.3241V81.54H112.86V61.7926C112.86 54.2235 113.854 50.9791 122.861 50.6696V38.0917C121.345 37.7708 118.782 37.8699 118.782 37.8699ZM25.8265 44.587C23.8829 44.4594 19.3832 44.1694 19.3832 40.1298C19.3832 35.2551 25.8615 35.2551 28.2914 35.2551C32.5638 35.2551 38.0972 36.5142 42.0487 37.6928C42.0487 37.6928 44.2529 38.4678 46.1289 39.2614L46.3032 39.3085V25.9581L46.0637 25.8874C41.4003 24.2604 35.9777 22.695 25.9242 22.695C8.59012 22.695 2.44824 32.7653 2.44824 41.3921C2.44824 46.3651 4.58568 58.069 24.4376 59.419C26.1205 59.5222 30.5868 59.7789 30.5868 63.9534C30.5868 67.4 26.9302 69.4325 20.7802 69.4325C14.0404 69.4325 7.50266 67.7185 3.53162 66.093V79.8431C9.47637 81.3971 16.1779 82.1736 24.032 82.1736C40.9808 82.1736 48.5718 72.646 48.5718 63.2028C48.5718 52.4957 40.0774 45.539 25.8265 44.587ZM127.448 81.54H142.828V38.5003H127.448V81.54ZM171.788 25.439V81.54H187.17V22.695L171.788 25.439ZM149.343 25.439L164.711 22.695V81.54H149.343V25.439Z" fill="white"/>
</svg>
