
<svg width="190" height="100" viewBox="0 0 190 100" fill="none" xmlns="http://www.w3.org/2000/svg">
<g clip-path="url(#clip0_351_135)">
<path d="M186.522 36.6988C184.101 35.0446 180.437 34.2104 175.634 34.2104H163.054L158.378 59.5285H141.898L142.958 53.7843H152.884L154.061 47.3327L144.14 47.347L145.202 41.6285H155.427L156.787 34.2118H136.022L131.583 58.2276H123.962L128.432 34.2106H117.577L113.138 58.2264H105.714L110.188 34.2106H99.3392L94.6569 59.5287H78.0591L79.1084 53.7845H89.0751L90.2529 47.3696L80.2956 47.3596L81.352 41.6298H91.6918L93.0437 34.21H28.336L24.653 54.2727L17.3184 34.21H6.05643L-0.00488281 66.9523H10.7504L14.4192 46.3363L21.5366 66.9523H60.0825L64.7691 41.6266H70.7975L66.111 66.9523H167.533L170.474 50.9657L175.23 66.9523H185.991L181.062 53.8893L182.19 53.6473C184.674 53.1163 186.611 51.976 187.96 50.2664C189.307 48.541 189.994 46.3259 189.994 43.6651C189.994 40.5674 188.858 38.2883 186.519 36.6969L186.522 36.6988ZM50.7231 59.5285H34.2597L35.3231 53.7843H45.6496L46.8202 47.3144H36.5932L37.5782 41.6301H54.0176L50.72 59.5284L50.7231 59.5285ZM177.656 48.4998C176.574 49.2543 175.005 49.6216 172.859 49.6216H170.732L172.364 40.8351H173.928C175.71 40.8351 177.009 41.1198 177.906 41.7006C178.605 42.1561 179.437 43.0573 179.437 44.7613C179.435 46.8226 178.467 47.9301 177.653 48.4996L177.656 48.4998Z" fill="#83BA3B"/>
</g>
<defs>
<clipPath id="clip0_351_135">
<rect width="190" height="100" fill="white"/>
</clipPath>
</defs>
</svg>
