
<svg width="190" height="100" viewBox="0 0 190 100" fill="none" xmlns="http://www.w3.org/2000/svg">
<g clip-path="url(#clip0_351_147)">
<path d="M163.883 34.1543H142.237V68.3936H163.883V34.1543Z" fill="#FF5F00"/>
<path d="M144.467 51.2766C144.464 47.9797 145.236 44.7254 146.724 41.7599C148.212 38.7945 150.376 36.1956 153.054 34.16C149.737 31.6356 145.754 30.0658 141.56 29.6301C137.366 29.1943 133.129 29.9102 129.335 31.6959C125.541 33.4816 122.342 36.265 120.104 39.7281C117.866 43.1912 116.68 47.1942 116.68 51.2797C116.68 55.3651 117.866 59.3681 120.104 62.8312C122.342 66.2943 125.541 69.0777 129.335 70.8634C133.129 72.6491 137.366 73.365 141.56 72.9293C145.754 72.4935 149.737 70.9237 153.054 68.3993C150.375 66.3631 148.21 63.7633 146.722 60.7967C145.235 57.8301 144.463 54.5746 144.467 51.2766Z" fill="#EB001B"/>
<path d="M187.283 64.7706V64.069H187.596V63.9238H186.853V64.069H187.146V64.7706H187.283ZM188.726 64.7706V63.9238H188.501L188.239 64.5287L187.977 63.9238H187.752V64.7706H187.914V64.1295L188.158 64.6799H188.326L188.57 64.1295V64.7706H188.726Z" fill="#F79E1B"/>
<path d="M189.431 51.2774C189.431 55.3631 188.244 59.3664 186.006 62.8296C183.768 66.2928 180.568 69.0762 176.774 70.8617C172.979 72.6471 168.742 73.3625 164.548 72.9262C160.353 72.4898 156.37 70.9192 153.054 68.394C155.731 66.3566 157.895 63.7571 159.383 60.7914C160.871 57.8258 161.644 54.5716 161.644 51.2744C161.644 47.9771 160.871 44.7229 159.383 41.7573C157.895 38.7917 155.731 36.1921 153.054 34.1547C156.37 31.6295 160.353 30.059 164.548 29.6226C168.742 29.1862 172.979 29.9017 176.774 31.6871C180.568 33.4725 183.768 36.2559 186.006 39.7191C188.244 43.1824 189.431 47.1856 189.431 51.2714V51.2774Z" fill="#F79E1B"/>
</g>
<g clip-path="url(#clip1_351_147)">
<path d="M43.4339 32.2297L28.4571 67.8639H18.6858L11.3156 39.4286C10.8682 37.677 10.4815 37.0353 9.11887 36.2979C6.89709 35.0953 3.2281 33.9682 0 33.2677L0.222236 32.2297H15.9516C17.9559 32.2297 19.7582 33.5606 20.2134 35.8636L24.1059 56.481L33.7258 32.2273L43.4339 32.2297ZM81.7195 56.2296C81.7588 46.8247 68.6784 46.3072 68.7684 42.1053C68.7964 40.8266 70.0196 39.4678 72.6894 39.1202C74.0139 38.9473 77.6632 38.8148 81.8053 40.7149L83.4289 33.1584C81.2047 32.3539 78.343 31.5791 74.7825 31.5791C65.6457 31.5791 59.2157 36.4227 59.1615 43.3583C59.1019 48.4883 63.7493 51.351 67.2532 53.055C70.8561 54.8013 72.0644 55.9225 72.0513 57.4845C72.0251 59.8748 69.1777 60.9306 66.5162 60.9716C61.8689 61.0429 59.174 59.718 57.0244 58.721L55.3489 66.5276C57.5088 67.5163 61.4953 68.3785 65.629 68.4212C75.3407 68.4212 81.6927 63.6376 81.7225 56.2296H81.7195ZM105.849 67.8639H114.398L106.932 32.2297H99.0421C98.1994 32.2225 97.374 32.4678 96.6728 32.934C95.9717 33.4001 95.4271 34.0655 95.1097 34.844L81.2381 67.8639H90.9444L92.8707 62.5414H104.73L105.849 67.8639ZM95.5351 55.238L100.4 41.8581L103.201 55.238H95.5351ZM56.6413 32.2297L48.9976 67.8639H39.7542L47.4008 32.2297H56.6413Z" fill="white"/>
</g>
<defs>
<clipPath id="clip0_351_147">
<rect width="73.8889" height="44.6571" fill="white" transform="translate(116.111 28.9473)"/>
</clipPath>
<clipPath id="clip1_351_147">
<rect width="114.396" height="36.8421" fill="white" transform="translate(0 31.5791)"/>
</clipPath>
</defs>
</svg>
