
<svg xmlns="http://www.w3.org/2000/svg" viewBox="0 0 106 26"><defs><style>.a{fill:#fff;fill-rule:evenodd;}</style></defs><path class="a" d="M2.9,25v0Zm0,0v0ZM6.69,6.46c-.81-.14-1.17-.72-2.23-.76l-.14.84C2.65,6.14,2.8,5.66.5,5.81c.24,1,.88,1.27,1.23,1.85C.92,8.13.57,7.92,0,8.72c.67.29,1.88.5,2.44.79C2.19,11,1.81,9.55,1.7,13c0,1-1.42,2.25-1,3.2.39.65.82.14,1,1.05.11.33,0,.54.14.94s.21.37.21.8c0,.73-.35,1,.11,1.67s.81.44,1.59.55c.07.54-.53,1.41-.78,1.92a3.85,3.85,0,0,0-.39,1.16c-.39,1.86.5,1.56.78.73s0-.73.71-1.09a5.21,5.21,0,0,0,.11,1.89c.74.18.56.07.88-.33l.21.4.78-.25c.32.4.11.18.46.36.46-.44.71-.44,1.42-.44A28.63,28.63,0,0,1,6.65,21.9a13.76,13.76,0,0,1,3.19-1.13l.39.62c-3-1-.82,2.36-.28,3.41.28.55.6.73.92.29.24-.62-.5-1.45-.64-2.14,2.44,1.16,1.87,2.72,3.08,2.4.46-1.67-2.06-4.47-2.69-5.38-1.17-1.56.49-1.92,1.7-5.88l2.16.62c-.22-1.13-1.07-1.67-1.35-2.55l1.45-.07c-.07-1.27-1.27-1.63-1.91-2.36a.46.46,0,0,0-.11-.07c.92-.51,4.32-.62,4.18-2.58a6.64,6.64,0,0,0-2.69-.73c0-1.08,1.38-.94,1.45-2.43-3.18-.07-4.42,1-5.63,1.49.43-1.6,1.24-4,.08-5.41C7.89.11,7.15,4.28,6.69,6.46Zm1.2,5.78c.57-.22.5-.18.75.14-.25.15.31.26-.39.11C7.93,12.38,7.93,12.24,7.89,12.24Zm-3.29.32a1,1,0,0,1-1-.61C4.32,12,4.28,12.09,4.6,12.56Zm-1.66-.94c.17,1.53,1.73,1.38,3.15,1.56s2.69.4,4,.62l.1-.47c.14-.22.29.43.18-.66l-1.2,0-.36-.91c-3.39.11-1.55-.47-2.9-.73-.67-.11-1,.4-1.27.47A6.41,6.41,0,0,1,2.94,11.62Zm4.81,12.2c.74,1.71.57,2.07,1.63,1.89.25-.8-.39-1.82-.74-3.05a2,2,0,0,0-.46-.94C6.8,21.79,7.4,23,7.75,23.82ZM9.56,7.19c.14-.47.07-.33.53-.58a14.41,14.41,0,0,1,2.16-1.16A2.48,2.48,0,0,1,9.56,7.19Zm-.43-.33.71.77a6,6,0,0,0,1.73-.55c1.21-.58,2.09-3.3-.85-1.38-.24.18-.56.36-.81.51C9.45,6.46,9.41,6.39,9.13,6.86Zm.46,1.56c.36.26.25.3.78.15l2.3-.69V7l-1.1.33v.07h-.1a2.07,2.07,0,0,0-.39.14C9.49,8,9.7,7.92,9.59,8.42ZM5.42,7.15c.67.19,1.06.33,1.2.95C5.56,8.1,5.73,7.88,5.42,7.15ZM7.11,8.72c0-1.24-.17-1.28-.56-1.57a3.66,3.66,0,0,0-1.49-.54C4.81,8.13,5.77,8.61,7.11,8.72Zm4.29,0c.07.1-.22.36.63.21.61-.07.39-.25.5-.51-.11,0,.18-.32-.6-.18S11.54,8.46,11.4,8.72Zm2.26,15.65h90a1.25,1.25,0,0,0,1-.44,1.53,1.53,0,0,0,.46-1.09V7.92a1.06,1.06,0,0,0-.36-.8,1.1,1.1,0,0,0-.85-.4H17A7.7,7.7,0,0,0,14.51,6s.07-.15.14-.18h89.26a2,2,0,0,1,1.49.61,2.13,2.13,0,0,1,.6,1.46V22.84a2.48,2.48,0,0,1-.71,1.71,2.07,2.07,0,0,1-1.63.69H13.73A2.39,2.39,0,0,0,13.66,24.37Zm9.7-9.66H21.48v-.15c.14-.07.18-.11.18-.14a.76.76,0,0,0-.14-.33L20.1,12l-.74.72v1.6c0,.15.11.22.25.29v.15H18.09v-.15c.17-.07.21-.14.21-.29V9.33c0-.14,0-.29-.21-.29V8.9h1.52V9a.28.28,0,0,0-.25.29v2l2-2a.3.3,0,0,0,.14-.21c0-.11,0-.15-.17-.15V8.9h1.91V9a1.83,1.83,0,0,0-.29.14.82.82,0,0,1-.17.22l-1.88,1.85,1.84,2.72c0,.08.18.22.32.48.11,0,.18.14.32.14Zm9.73,0H31.36v-.15a.26.26,0,0,0,.17-.29.94.94,0,0,0,0-.25l-.32-.84H29l-.32.84a1.06,1.06,0,0,0,0,.29c0,.11.1.18.21.25v.15H27.22v-.15c.17-.07.28-.18.42-.47l1.74-4.43a2.9,2.9,0,0,0,.1-.4c0-.07-.1-.18-.21-.22V8.9h1.66V9c-.14,0-.17.11-.17.22a1.26,1.26,0,0,0,0,.29L32.63,14a1.68,1.68,0,0,1,.18.36c.07.07.14.18.28.18Zm-2.23-2.33-.78-2-.81,2Zm11.79,2.33H41.13v-.15c.14-.07.24-.14.24-.29V12.16H38.54v2.11c0,.15.11.22.25.29v.15H37.3v-.15c.15-.07.25-.14.25-.29V9.33A.31.31,0,0,0,37.3,9V8.9h1.49V9a.32.32,0,0,0-.25.29v1.89h2.83V9.33A.31.31,0,0,0,41.13,9V8.9h1.52V9a.26.26,0,0,0-.25.29v4.94c0,.15.07.22.25.29Zm10.05,0H51.18v-.15c.1,0,.14-.11.14-.18s0-.15-.18-.29l-2.65-3.41v3.59c0,.15,0,.22.21.29v.15H47.28v-.15c.15-.07.22-.14.22-.29V9.33c0-.14-.07-.29-.22-.29V8.9H49V9c-.14,0-.21,0-.21.15a.41.41,0,0,0,.1.21l2.66,3.35V9.33A.28.28,0,0,0,51.28,9V8.9H52.7V9a.32.32,0,0,0-.25.29v4.94c0,.15.11.22.25.29Zm10,0H61v-.15c.14-.07.21-.14.21-.29a2.14,2.14,0,0,0-.07-.25l-.36-.84H58.68l-.35.84a.93.93,0,0,0-.07.29c0,.11.07.18.21.25v.15H56.91v-.15a.77.77,0,0,0,.39-.47L59,9.66a.79.79,0,0,0,.08-.4A.23.23,0,0,0,58.93,9V8.9h1.7V9a.22.22,0,0,0-.22.22,1.67,1.67,0,0,0,.08.29L62.33,14c.07.14.1.29.14.36s.17.18.28.18Zm-2.26-2.33-.71-2h-.07l-.78,2ZM74.78,9c-.14,0-.28.22-.42.58L73,13.91a3.35,3.35,0,0,0-.07.4c0,.11.07.18.21.25v.15H71.56v-.15c.18-.07.29-.14.29-.29a2.3,2.3,0,0,0-.15-.36L70.64,10.6l-1.06,3.31a1.32,1.32,0,0,0-.07.36c0,.15,0,.22.21.29v.15H68.2v-.15c.14-.07.25-.14.25-.29s-.07-.14-.14-.36L66.93,9.62a1.65,1.65,0,0,0-.18-.47C66.68,9,66.64,9,66.5,9V8.9h1.7V9C68,9,68,9.15,68,9.26a1.77,1.77,0,0,0,0,.36l1,3,1-3a2.84,2.84,0,0,1,.07-.36A.22.22,0,0,0,69.83,9V8.9h1.73V9c-.14,0-.24.15-.24.22a2.22,2.22,0,0,0,.1.36l1,3,.92-3a1.53,1.53,0,0,0,.1-.36c0-.11-.1-.22-.28-.22V8.9h1.66Zm9.63,5.67H82.68v-.15a.26.26,0,0,0,.17-.29.94.94,0,0,0,0-.25l-.32-.84H80.34L80,14a1.06,1.06,0,0,0,0,.29c0,.11.1.18.21.25v.15H78.54v-.15c.17-.07.28-.18.42-.47l1.73-4.43a2,2,0,0,0,.11-.4A.27.27,0,0,0,80.59,9V8.9h1.7V9a.24.24,0,0,0-.22.22.82.82,0,0,0,.11.29L84,14a1.68,1.68,0,0,1,.18.36c.07.07.14.18.28.18Zm-2.23-2.33-.74-2h-.07l-.78,2Zm11.75,2.33H92v-.15c.14-.07.21-.11.21-.14a.73.73,0,0,0-.21-.33L90.6,12l-.67.72v1.6c0,.15,0,.22.21.29v.15H88.62v-.15c.14-.07.25-.14.25-.29V9.33A.28.28,0,0,0,88.62,9V8.9h1.52V9c-.17,0-.21.15-.21.29v2l1.95-2A.34.34,0,0,0,92,9.19C92,9.08,92,9,91.81,9V8.9h2V9a.62.62,0,0,0-.28.14.93.93,0,0,1-.25.22l-1.88,1.85,1.88,2.72a1.6,1.6,0,0,1,.32.48c.1,0,.21.14.35.14Zm9,.25h-.11c0-.18-.14-.25-.21-.25H98.21v-.15c.15-.07.22-.14.22-.29V9.33A.28.28,0,0,0,98.21,9V8.9h4.29c.1,0,.17-.08.24-.29h.11v1.52h-.11c-.07-.18-.14-.29-.24-.29h-3v1.38h2c.11,0,.18-.11.25-.29h.14v1.45h-.14c-.07-.14-.14-.22-.25-.22h-2v1.53h3.15c.07,0,.18,0,.21-.22h.11ZM22.58,21.68a4,4,0,0,1-2.19.83,2.47,2.47,0,0,1-1.7-.65A2.61,2.61,0,0,1,18,19.94a2.69,2.69,0,0,1,.74-2,2.71,2.71,0,0,1,1.7-.58,3.05,3.05,0,0,1,1.35.33c.14.07.21.15.28.15s.07-.08.11-.11l.1,0L21.8,19l-.1-.07v-.18a.45.45,0,0,1-.11-.15,2.89,2.89,0,0,0-.57-.25,1.36,1.36,0,0,0-.63-.11,1.34,1.34,0,0,0-1.07.47,1.69,1.69,0,0,0-.42,1.24,1.64,1.64,0,0,0,.46,1.27,1.35,1.35,0,0,0,1.06.47,2,2,0,0,0,1.24-.4v-.65h-1a.23.23,0,0,0-.21.25h-.07V19.72h.07a.24.24,0,0,0,.21.25h1.91V20a.29.29,0,0,0-.18.3v1a.24.24,0,0,0,.18.26Zm5.88.73H27v-.15a.17.17,0,0,0,.18-.18.31.31,0,0,0-.07-.22l-.25-.73H25l-.25.73a.9.9,0,0,0-.07.22c0,.11.07.14.22.18v.15H23.61v-.15c.14,0,.21-.11.32-.36l1.45-3.78a.55.55,0,0,0,.07-.25c0-.15-.07-.26-.14-.26v-.14h1.41v.14a.17.17,0,0,0-.18.18.66.66,0,0,0,0,.26l1.52,3.81c.14.29.21.4.36.4Zm-1.84-1.93L26,18.74h0l-.63,1.74Zm8,1.93H33.34v-.15c.11,0,.18-.07.18-.22V19L32,22.33,30.47,19V22c0,.15,0,.18.18.22v.15H29.52v-.15a.23.23,0,0,0,.17-.22V17.87c0-.15-.07-.26-.17-.26v-.14H31v.14c-.11,0-.14.11-.14.18s0,.11,0,.15l1.1,2.5L33.13,18a.38.38,0,0,0,.1-.21c0-.11,0-.15-.17-.15v-.14h1.55v.14a.24.24,0,0,0-.24.26V22c0,.11.1.18.24.22Zm2.62,0H36v-.15c.15,0,.18-.11.18-.22V17.87c0-.15,0-.26-.18-.26v-.14h1.24v.14c-.1,0-.17.11-.17.26V22c0,.15.07.18.17.22Zm5.91,0H41.9v-.15c.11,0,.15,0,.15-.11s0-.14-.18-.25L39.6,19v3c0,.11.11.18.25.22v.15h-1.2v-.15c.14,0,.18-.11.18-.22V17.87c0-.15,0-.26-.18-.26v-.14H40v.14c-.11,0-.14,0-.14.15a.18.18,0,0,0,.1.18l2.2,2.83v-2.9c0-.15-.11-.26-.18-.26v-.14h1.13v.14c-.07,0-.17.11-.17.26V22c0,.15.1.18.17.22ZM49,21.68a3.71,3.71,0,0,1-2.2.83,2.33,2.33,0,0,1-1.66-.65,2.59,2.59,0,0,1-.67-1.92,2.63,2.63,0,0,1,.71-2,2.6,2.6,0,0,1,1.69-.58,3.15,3.15,0,0,1,1.35.33,3.12,3.12,0,0,0,.28.15s.07-.08.14-.11l.08,0L48.28,19l-.08-.07c0-.07,0-.15,0-.18s-.07-.08-.11-.15a3,3,0,0,0-.56-.25,1.4,1.4,0,0,0-.64-.11,1.36,1.36,0,0,0-1.06.47,1.84,1.84,0,0,0-.46,1.24,2,2,0,0,0,.46,1.27,1.54,1.54,0,0,0,1.09.47,2.36,2.36,0,0,0,1.28-.4v-.65h-1c-.1,0-.17.1-.25.25h-.07V19.72h.07c.08.14.15.25.25.25H49V20c-.07.08-.18.15-.18.3v1a.36.36,0,0,0,.18.26Zm8.14.07-.11,0a.16.16,0,0,0-.14-.07,7.14,7.14,0,0,1-.64.36,1.5,1.5,0,0,1-.67.33,2,2,0,0,1-.67.1,2.42,2.42,0,0,1-1.63-.65,2.67,2.67,0,0,1-.71-1.92,2.47,2.47,0,0,1,.71-1.89,2.26,2.26,0,0,1,1.63-.66,2.38,2.38,0,0,1,1.06.22,3.26,3.26,0,0,0,.32.15.74.74,0,0,0,.32.21.74.74,0,0,0,.28.22c.07,0,.11-.07.14-.11l.11,0-.57,1.05-.07-.11a.67.67,0,0,0-.35-.5,1.62,1.62,0,0,0-.57-.29,2.08,2.08,0,0,0-.53,0,1.46,1.46,0,0,0-1.1.43,1.73,1.73,0,0,0-.49,1.28A1.66,1.66,0,0,0,54,21.21a1.39,1.39,0,0,0,1.1.47,2.51,2.51,0,0,0,.46-.11,2.44,2.44,0,0,0,.6-.22c.25-.22.39-.4.39-.58l.07,0ZM62.93,20a2.56,2.56,0,0,1-.67,1.89,2.46,2.46,0,0,1-1.63.65A2.14,2.14,0,0,1,59,21.79a2.45,2.45,0,0,1-.71-1.85A2.58,2.58,0,0,1,59,18.05a2.09,2.09,0,0,1,1.63-.66,2.2,2.2,0,0,1,1.63.69A2.57,2.57,0,0,1,62.93,20ZM62,20a2.27,2.27,0,0,0-.36-1.27,1.24,1.24,0,0,0-1-.47,1.14,1.14,0,0,0-1,.47,1.72,1.72,0,0,0-.43,1.24,1.55,1.55,0,0,0,.43,1.19,1.21,1.21,0,0,0,1,.55,1.45,1.45,0,0,0,1-.47A2.06,2.06,0,0,0,62,20Zm7.29,2.44H68.06v-.15c.11,0,.21-.07.21-.22V19l-1.59,3.34L65.19,19V22c0,.15.07.18.22.22v.15H64.2v-.15c.14,0,.21-.11.21-.22V17.87c0-.15-.07-.26-.21-.26v-.14h1.59v.14c-.1,0-.14.11-.14.18v.15l1.1,2.5L67.85,18a.3.3,0,0,0,.07-.21c0-.11,0-.15-.11-.15v-.14H69.3v.14c-.11,0-.18.11-.18.26V22a.23.23,0,0,0,.18.22Zm6.47,0H74.54v-.15c.14,0,.17-.07.17-.22V19l-1.55,3.34L71.7,19V22c0,.15,0,.18.18.22v.15H70.75v-.15c.07,0,.18-.11.18-.22V17.87c0-.15-.11-.26-.18-.26v-.14h1.49v.14c-.08,0-.11.11-.11.18s0,.11,0,.15l1.1,2.5L74.36,18a2.28,2.28,0,0,0,.11-.21c0-.11-.08-.15-.22-.15v-.14h1.52v.14c-.07,0-.17.11-.17.26V22c0,.11.1.18.17.22Zm2.66,0H77.19v-.15c.14,0,.21-.11.21-.22V17.87c0-.15-.07-.26-.21-.26v-.14h1.24v.14c-.11,0-.18.11-.18.26V22c0,.15.07.18.18.22Zm5.17-1.49A1.53,1.53,0,0,1,83,22.15a2.17,2.17,0,0,1-1.24.36A3.34,3.34,0,0,1,80.13,22a.23.23,0,0,0-.18-.11s-.07,0-.14.08l-.07-.08.46-1.2.07,0c0,.29.21.51.6.69a2.59,2.59,0,0,0,.89.22,1.71,1.71,0,0,0,.6-.15.52.52,0,0,0,.35-.54v-.18c0-.15-.28-.29-.6-.33,0,0-.21,0-.64-.07a2.9,2.9,0,0,1-1.2-.4,1.28,1.28,0,0,1-.39-1,1.36,1.36,0,0,1,.6-1.27,1.75,1.75,0,0,1,1.13-.33,3,3,0,0,1,1.14.22l.6.29c.07,0,.11,0,.14,0l.11,0-.46,1.16L83,19a.38.38,0,0,0,0-.22s0-.07-.14-.11a1.91,1.91,0,0,0-1.24-.43c-.6,0-.92.18-.92.54a.47.47,0,0,0,.18.4,5.64,5.64,0,0,0,.71.15,3.21,3.21,0,0,1,1.31.33A1.28,1.28,0,0,1,83.6,20.92Zm5,0A1.36,1.36,0,0,1,88,22.15a2.17,2.17,0,0,1-1.24.36A3.36,3.36,0,0,1,85.15,22c-.1-.11-.17-.11-.17-.11s-.11,0-.14.08l-.11-.08.46-1.2.11,0c0,.29.17.51.6.69a2.18,2.18,0,0,0,.85.22,1.4,1.4,0,0,0,.6-.15c.28-.14.42-.29.42-.54,0,0-.07-.11-.07-.18s-.21-.29-.56-.33c0,0-.25,0-.68-.07A2.7,2.7,0,0,1,85.3,20a1.16,1.16,0,0,1-.39-1,1.49,1.49,0,0,1,.56-1.27,1.83,1.83,0,0,1,1.13-.33,3.29,3.29,0,0,1,1.17.22l.6.29a.33.33,0,0,0,.15,0l.07,0-.46,1.16L88.06,19a.25.25,0,0,0-.07-.22s0-.07-.15-.11a1.63,1.63,0,0,0-1.16-.43c-.68,0-1,.18-1,.54a.51.51,0,0,0,.22.4,4.47,4.47,0,0,0,.67.15,3.19,3.19,0,0,1,1.34.33A1.26,1.26,0,0,1,88.59,20.92Zm2.51,1.49H89.86v-.15c.14,0,.21-.11.21-.22V17.87c0-.15-.07-.26-.21-.26v-.14H91.1v.14c-.07,0-.18.11-.18.26V22c0,.15.11.18.18.22Zm6-2.44a2.58,2.58,0,0,1-.71,1.89,2.22,2.22,0,0,1-1.59.65,2,2,0,0,1-1.6-.72,2.45,2.45,0,0,1-.71-1.85,2.58,2.58,0,0,1,.71-1.89,2.08,2.08,0,0,1,1.6-.66,2,2,0,0,1,1.59.69A2.6,2.6,0,0,1,97.05,20Zm-.89,0a1.91,1.91,0,0,0-.42-1.27,1.11,1.11,0,0,0-1-.47,1.25,1.25,0,0,0-1,.47,1.9,1.9,0,0,0-.39,1.24,1.7,1.7,0,0,0,.39,1.19,1.32,1.32,0,0,0,1,.55,1.39,1.39,0,0,0,1-.47A1.9,1.9,0,0,0,96.16,20Zm6.69,2.44h-1.27v-.15c.1,0,.14,0,.14-.11s0-.14-.14-.25L99.35,19v3a.2.2,0,0,0,.17.22v.15H98.36v-.15c.1,0,.21-.11.21-.22V17.87a.25.25,0,0,0-.21-.26v-.14H99.7v.14c-.11,0-.14,0-.14.15a.26.26,0,0,0,.1.18l2.2,2.83v-2.9c0-.15,0-.26-.18-.26v-.14h1.17v.14c-.11,0-.18.11-.18.26V22c0,.15.07.18.18.22ZM17.77,15.9h85.61v.55H17.77Z"/></svg>