<svg width="96" height="24" viewBox="0 0 96 24" xmlns="http://www.w3.org/2000/svg"><path fill="#FFF" d="M5.63146 0.500983C5.80762 0.406127 6.01089 0.433229 6.2006 0.419678C8.02995 0.433229 9.85931 0.406127 11.6887 0.433229C12.0274 0.419678 12.2849 0.785549 12.1765 1.11077C10.7808 6.30072 9.37148 11.4907 8.00285 16.6806C7.8809 17.0058 8.16546 17.3717 8.50423 17.3446C12.2036 17.3582 15.8894 17.3446 19.5888 17.3446C19.9276 17.3175 20.2121 17.6834 20.1037 18.0086C19.8191 19.1062 19.521 20.2038 19.2229 21.3014C19.1823 21.586 18.9112 21.7757 18.6402 21.7486C12.6372 21.7486 6.62067 21.7486 0.61767 21.7486C0.238248 21.8028 -0.114073 21.4099 0.0349859 21.044C1.81014 14.3228 3.59885 7.6016 5.38755 0.866854C5.4282 0.731346 5.49596 0.582287 5.63146 0.500983Z M27.2862 0.528002C27.5843 0.392494 27.9096 0.433146 28.2212 0.433146C33.628 0.433146 39.0212 0.433146 44.4144 0.433146C44.6177 0.433146 44.8616 0.460248 44.9971 0.636408C45.2681 0.920975 45.1462 1.3817 44.9971 1.69337C44.2518 2.56062 43.5878 3.48207 43.0323 4.48483C42.9374 4.66099 42.8019 4.86426 42.5715 4.85071C39.4142 4.86426 36.2433 4.85071 33.086 4.85071C32.7878 4.8236 32.4897 4.99976 32.4084 5.28433C32.151 6.20578 31.9206 7.14079 31.6767 8.06224C31.5547 8.42811 31.8528 8.84819 32.2323 8.84819C35.105 8.86174 37.9914 8.84819 40.8777 8.86174C41.2571 8.84819 41.5552 9.26826 41.4468 9.63414C41.1893 10.664 40.9048 11.6803 40.6338 12.6966C40.5796 12.9812 40.3085 13.198 40.024 13.1844C36.9479 13.198 33.8584 13.1844 30.7823 13.1844C30.5113 13.1844 30.2538 13.3742 30.1996 13.6316C29.9286 14.6479 29.6441 15.6642 29.3866 16.6805C29.2917 17.06 29.6576 17.4529 30.037 17.3987C33.8584 17.3987 37.6661 17.3987 41.4875 17.3987C41.9075 17.3852 42.2328 17.8595 42.0701 18.2524C41.7991 19.2688 41.5146 20.2715 41.2435 21.2878C41.1622 21.5995 40.837 21.7757 40.5254 21.7485C34.3597 21.7485 28.1806 21.7485 22.015 21.7485C21.6626 21.7757 21.351 21.3962 21.4865 21.0575C23.2481 14.4447 25.0097 7.83188 26.7713 1.21909C26.8255 0.920975 27.0152 0.649959 27.2862 0.528002Z M55.0512 0.107978C56.2165 -0.0546317 57.3954 -0.0275301 58.5473 0.14863C58.5744 0.162181 58.6421 0.175732 58.6692 0.189283C59.6449 1.99154 60.607 3.80734 61.5826 5.6096C63.5204 5.94837 65.4446 6.30069 67.3824 6.63946H67.3959C67.9515 7.77773 68.3309 8.9973 68.5206 10.244C67.2333 11.721 65.8647 13.1167 64.5367 14.5802C64.7129 15.976 64.8755 17.3581 65.0516 18.7539C65.1058 19.2959 65.2143 19.8515 65.2007 20.4071V20.4342C64.2928 21.3285 63.2765 22.0874 62.1518 22.6836C60.3631 21.8163 58.5473 20.9762 56.745 20.1089C54.9157 20.9762 53.0863 21.857 51.2705 22.7378C50.2135 22.1958 49.2243 21.5047 48.3571 20.6781C48.601 18.6455 48.8313 16.6128 49.0753 14.5802C47.6524 13.0896 46.2702 11.5719 44.8203 10.122C44.9965 8.88889 45.4165 7.70997 45.945 6.59881L45.8637 6.80207C47.8963 6.4091 49.9154 6.01612 51.948 5.62315C52.1106 5.62315 52.1648 5.43344 52.2326 5.32503C53.1676 3.54988 54.1297 1.84248 55.0512 0.107978Z M73.7655 1.09718C73.8333 0.704203 74.1991 0.406085 74.6056 0.433187C76.0691 0.433187 77.5326 0.433187 78.9825 0.433187C79.3213 0.406085 79.6465 0.595796 79.782 0.907465C81.6927 4.55263 83.6034 8.19779 85.5276 11.8294C85.5682 12.0327 85.8934 12.0056 85.907 11.8023C86.9504 8.00808 87.9803 4.21386 89.0101 0.419636C90.9343 0.419636 92.8585 0.419636 94.7963 0.419636C95.1486 0.365433 95.4603 0.744855 95.3248 1.07007C93.5632 7.72351 91.788 14.3634 90.0129 21.0033C89.9587 21.3963 89.6199 21.7486 89.1998 21.735C87.7364 21.735 86.2729 21.735 84.7958 21.735C84.4842 21.7486 84.2131 21.5453 84.0776 21.2743C82.1263 17.8324 80.1615 14.4041 78.1966 10.9622C78.1153 10.8266 78.0475 10.6369 77.8714 10.6234C77.6681 10.6505 77.6952 10.9079 77.6275 11.057C76.7467 14.4583 75.8523 17.8731 74.9715 21.2743C74.9444 21.5182 74.7276 21.7486 74.4701 21.735C72.5188 21.735 70.5675 21.7215 68.6162 21.6944C68.3045 21.6944 68.1284 21.2608 68.3723 21.0575C70.6353 18.1576 71.7464 14.377 71.4212 10.7047C71.3941 10.3388 71.3128 9.95939 71.4212 9.59352C72.2207 6.77496 72.9931 3.92929 73.7655 1.09718Z"/><path fill="#d6161b" d="M45.9583 6.55803C47.6657 3.08902 51.2024 0.541474 55.0508 0.107849C54.1294 1.84235 53.1673 3.54975 52.2458 5.28425C52.1645 5.39266 52.1239 5.58237 51.9613 5.58237C49.9286 5.97534 47.9096 6.36831 45.877 6.76129L45.9583 6.55803Z M58.5479 0.148682C62.315 0.690713 65.7433 3.21116 67.383 6.63951C65.4452 6.31429 63.521 5.96197 61.5832 5.60965C60.6076 3.8074 59.6455 1.99159 58.6698 0.189334C58.6427 0.175783 58.575 0.148682 58.5479 0.148682Z M53.3029 7.50659C55.5117 7.50659 57.734 7.50659 59.9428 7.50659C60.6203 9.60697 61.2979 11.7073 61.989 13.7942C60.2138 15.1221 58.398 16.4095 56.6093 17.7239C54.8206 16.423 53.0319 15.1221 51.2432 13.8213C51.9207 11.7209 52.6118 9.60697 53.3029 7.50659Z M44.8069 10.0678L44.834 10.0949C46.2839 11.5448 47.6661 13.0761 49.089 14.5531C48.8586 16.5857 48.6147 18.6184 48.3708 20.651C45.5115 18.0221 44.1565 13.8891 44.8069 10.0678Z M64.5498 14.5667C65.8642 13.1168 67.2329 11.7075 68.5337 10.2305C69.1029 13.8756 67.8698 17.7918 65.2138 20.38C65.2273 19.8244 65.1325 19.2824 65.0647 18.7268C64.8886 17.3446 64.7124 15.9625 64.5498 14.5667Z M51.2842 22.7108C53.1135 21.83 54.9293 20.9492 56.7587 20.0819C58.5609 20.9492 60.3632 21.7758 62.1654 22.6566C58.832 24.4182 54.6312 24.4588 51.2842 22.7108Z"/></svg>
